<svg id="Layer_1" data-name="Layer 1" xmlns="http://www.w3.org/2000/svg" viewBox="0 0 194.8 92.02"><defs><style>.cls-1,.cls-5{font-size:44.18px;font-family:ArialRoundedMTBold, Arial Rounded MT Bold;}.cls-1,.cls-3{fill:none;stroke:#e6e7e8;}.cls-1{stroke-miterlimit:10;stroke-width:5px;}.cls-2{letter-spacing:-0.04em;}.cls-3{stroke-linecap:round;stroke-linejoin:round;stroke-width:3px;}.cls-4,.cls-5{fill:#1d76bb;}</style></defs><title>ELake ru</title><text class="cls-1" transform="translate(88.9 70.41)">La<tspan class="cls-2" x="52.93" y="0">k</tspan><tspan x="76.58" y="0">e</tspan></text><path class="cls-3" d="M166.45,145.38c.23.39,15.93-9.61,16.11-9.3.47.82-26,20.36-25.64,21.06.6,1,37.14-23,37.8-21.83.51.89-38.21,26.23-37.72,27.07.79,1.36,43.92-26.83,44.56-25.73s-47.41,31.58-46.67,32.85c.94,1.62,58.58-35.72,59.4-34.29,1,1.81-66.62,42.14-65.59,43.93.92,1.59,69-42.28,70.1-40.47s-65.44,41.16-64.54,42.71,67.66-41.14,68.56-39.58c1.17,2-69.77,43.65-68.63,45.62.91,1.57,72.84-44.51,73.9-42.67C229.35,147,153,191.39,153.91,193s72.6-44.2,73.59-42.49c1.12,1.95-73.1,45.57-72,47.52.9,1.56,76.74-46.9,77.86-45s-72,45.25-70.94,47.06c1.27,2.2,76.88-46.52,77.81-44.92s-83.74,50.58-82.41,52.87,79.72-48.8,80.92-46.72S163,208.94,164,210.7s77.54-47.33,78.65-45.41c.94,1.62-75.08,46.48-74.14,48.11s72.7-44.12,73.63-42.51c1.2,2.07-73.52,45.47-72.37,47.45,1,1.67,68.46-41.88,69.48-40.11s-67,41.78-66,43.55S243.41,179,244.37,180.7s-64.49,40.49-63.63,42c.69,1.2,60.87-37,61.68-35.61s-51.06,33.22-50.3,34.54,42.11-26.07,42.87-24.75c.65,1.12-38.59,26.49-38.12,27.3.59,1,36.93-22.52,37.45-21.62.35.6-25.8,19.41-25.42,20.07.19.32,14.28-8.78,14.51-8.38" transform="translate(-147.19 -133.68)"/><path class="cls-4" d="M208.54,191.65,206,193.23l3.6,1.49c-1.54,2.14-3.81,1.52-5.7,1.84a52.48,52.48,0,0,1-6.08.36l-.2.92a7.33,7.33,0,0,0,1.84.71c1,.1,1.94-.13,2.89,0a5.22,5.22,0,0,1,1.59.79c-.44.35-.84.93-1.33,1a15.14,15.14,0,0,1-3.64.21c-2.5-.19-5-.49-7.46-.85a12.22,12.22,0,0,1-2.43-1l3.68-1.55-.12-.69h-9.54c1.65-2.92,4.63-2.81,6.83-4.87a12.26,12.26,0,0,0-3.16-.65c-3,.29-5-2.13-7.57-2.89-.29-.09-.37-1.3-.34-2,0-.08,0-.15,0-.23h51.4c0-.29,1.85-1.82,2-2.1a6.91,6.91,0,0,0,.41-1.8c0-.88-.33-1.15-.33-2.52a3.17,3.17,0,0,1,.28-1.18c.29-.82,1-1.45,1-2.4a17.17,17.17,0,0,0-.18-1.92h0a37.52,37.52,0,0,0-3.08-11.4c-5.62-12.12-15.05-19.49-28.26-21.68a34.15,34.15,0,0,0-21.81,3.1c-14.2,7.43-20.62,19.66-21,35.37a4.9,4.9,0,0,0,.87,2.49c1.15,1.85,1.77,3.67.79,5.81a2.18,2.18,0,0,0,1.32,3.25c.91.39,1.78.87,3,1.46a15.48,15.48,0,0,0-1.78,1.55,18.09,18.09,0,0,0-1.27,2,8.38,8.38,0,0,0,2,1.14,5.51,5.51,0,0,1,4,2.59l-4.9,1.21v.67a19.43,19.43,0,0,0,2,.74c1.62.4,3.69-.41,4.62,1.84.11.25.82.24,1.25.38.63.21,1.24.46,1.86.69l0,.51-5.4,1.54.06.68c1.53.29,3,.62,4.58.85,2.6.4,5.2.79,7.81,1.08a18.36,18.36,0,0,0,3.05-.13c2.61-.16,5.26-.7,7.81-.39,3.57.44,6.81,2.72,10.64,2.1.38-.06.83.3,1.26.44,3.77,1.23,7.51.89,11.34.1a7.54,7.54,0,0,0-.23-.81c-.31-.71-.64-1.42-1-2.12.8-.13,1.59-.3,2.39-.37,1.2-.1,2.41-.13,3.61-.19l.11-1-8.51-2.17.1-.6a14.32,14.32,0,0,1,2.16,0c2.6.4,5.18,1,7.79,1.25a4.38,4.38,0,0,0,3.05-1c.37-.34-.26-1.75-.48-2.9l5.64-1.61-3.42-2.79,7.6-3.3c-.65-.79-1.55-2.14-2-2.55m-51.53-18.52c1.26-6.34,5.35-12.17,10.91-14.16,8.63-3.09,17.8,0,21.3,9.7a44.29,44.29,0,0,1,1.3,4.43Z" transform="translate(-147.19 -133.68)"/><path class="cls-4" d="M187.24,214.74a2.24,2.24,0,0,1,.68-.17,22.2,22.2,0,0,0,11.27-1.74,2,2,0,0,1,1.12-.2c2.94.63,5.87,1.32,9.23,2.08-.74.27-1.11.43-1.49.54-2.2.67-4.43,1.25-6.6,2a4.51,4.51,0,0,1-3.83-.3,16,16,0,0,0-4.71-1.21c-1.88-.28-3.8-.33-5.71-.47Z" transform="translate(-147.19 -133.68)"/><path class="cls-4" d="M175.05,210.86a28.12,28.12,0,0,0,10.62-.45c3.34-.73,6.55.3,9.54,1.8l0,.58c-2.23,0-4.46-.08-6.69,0a32.56,32.56,0,0,0-5.43.62C179.82,214.14,177.45,212.55,175.05,210.86Z" transform="translate(-147.19 -133.68)"/><text class="cls-5" transform="translate(88.9 70.41)">La<tspan class="cls-2" x="52.93" y="0">k</tspan><tspan x="76.58" y="0">e</tspan></text></svg>