<?xml version="1.0" encoding="utf-8" standalone="no"?>
<!-- Creator: Esri ArcMap 10.5.0.6491 -->
<!DOCTYPE svg PUBLIC "-//W3C//DTD SVG 1.1//EN"  "http://www.w3.org/Graphics/SVG/1.1/DTD/svg11.dtd">
<svg width="215.34803pt" height="44.47559pt" viewBox="0 0 215.34803 44.47559" enable-background="new 0 0 215.34803 44.47559"
	version="1.1" xmlns="http://www.w3.org/2000/svg" xmlns:xlink="http://www.w3.org/1999/xlink" >
	<g id="Other">
		<clipPath id="SVG_CP_1">
			<path d="M0,44.47559L0,0L215.34803,0L215.34803,44.47559L0,44.47559z"/>
		</clipPath>
		<g font-family="'Arial'" font-size="1" kerning="0" font-weight="400" fill="#000000" clip-path="url(#SVG_CP_1)" >
			<text text-anchor="start" transform="matrix(9.59056 0 0 9.56207 7.67244 9.44815)" >
				<tspan direction="ltr" unicode-bidi="embed" x="0 ">П</tspan>
				<tspan direction="ltr" unicode-bidi="embed" x="0.69792 ">о</tspan>
				<tspan direction="ltr" unicode-bidi="embed" x="1.29614 ">в</tspan>
				<tspan direction="ltr" unicode-bidi="embed" x="1.79466 ">т</tspan>
				<tspan direction="ltr" unicode-bidi="embed" x="2.29317 ">о</tspan>
				<tspan direction="ltr" unicode-bidi="embed" x="2.84154 ">р</tspan>
				<tspan direction="ltr" unicode-bidi="embed" x="3.43976 ">я</tspan>
				<tspan direction="ltr" unicode-bidi="embed" x="3.98812 ">е</tspan>
				<tspan direction="ltr" unicode-bidi="embed" x="4.53649 ">м</tspan>
				<tspan direction="ltr" unicode-bidi="embed" x="5.28426 ">о</tspan>
				<tspan direction="ltr" unicode-bidi="embed" x="5.83263 ">с</tspan>
				<tspan direction="ltr" unicode-bidi="embed" x="6.33114 ">т</tspan>
				<tspan direction="ltr" unicode-bidi="embed" x="6.82966 ">ь</tspan>
				<tspan direction="ltr" unicode-bidi="embed" x="7.62728 ">в</tspan>
				<tspan direction="ltr" unicode-bidi="embed" x="8.17565 ">о</tspan>
				<tspan direction="ltr" unicode-bidi="embed" x="8.72402 ">д</tspan>
				<tspan direction="ltr" unicode-bidi="embed" x="9.32223 ">ы</tspan>
				<tspan direction="ltr" unicode-bidi="embed" x="10.36912 ">з</tspan>
				<tspan direction="ltr" unicode-bidi="embed" x="10.81778 ">а</tspan>
				<tspan direction="ltr" unicode-bidi="embed" x="11.71511 ">1</tspan>
				<tspan direction="ltr" unicode-bidi="embed" x="12.26347 ">9</tspan>
				<tspan direction="ltr" unicode-bidi="embed" x="12.86169 ">8</tspan>
				<tspan direction="ltr" unicode-bidi="embed" x="13.41006 ">4</tspan>
				<tspan direction="ltr" unicode-bidi="embed" x="14.00828 ">-</tspan>
				<tspan direction="ltr" unicode-bidi="embed" x="14.35724 ">2</tspan>
				<tspan direction="ltr" unicode-bidi="embed" x="14.9056 ">0</tspan>
				<tspan direction="ltr" unicode-bidi="embed" x="15.50382 ">1</tspan>
				<tspan direction="ltr" unicode-bidi="embed" x="16.05219 ">5</tspan>
				<tspan direction="ltr" unicode-bidi="embed" x="16.94952 ">г</tspan>
				<tspan direction="ltr" unicode-bidi="embed" x="17.29848 ">г</tspan>
				<tspan direction="ltr" unicode-bidi="embed" x="17.54773 ">.</tspan>
				<tspan direction="ltr" unicode-bidi="embed" x="17.84684 ">(</tspan>
				<tspan direction="ltr" unicode-bidi="embed" x="18.1958 ">%</tspan>
				<tspan direction="ltr" unicode-bidi="embed" x="19.09313 ">)</tspan>
			</text>
		</g>
		<path clip-path="url(#SVG_CP_1)" fill="none" stroke="#000000" stroke-width="0.95906" stroke-miterlimit="10" stroke-linecap="round" stroke-linejoin="round" d="
			M106.45516,27.73002L106.45516,28.68622"/>
		<path clip-path="url(#SVG_CP_1)" fill="#FFFFFF" fill-rule="evenodd" stroke="none" d="M6.71339,16.73363L6.71339,27.73002L
			7.19292,27.73002L7.19292,16.73363L6.71339,16.73363z"/>
		<path clip-path="url(#SVG_CP_1)" fill="#FFFFFF" fill-rule="evenodd" stroke="none" d="M7.19292,16.73363L7.19292,27.73002L
			7.67244,27.73002L7.67244,16.73363L7.19292,16.73363z"/>
		<path clip-path="url(#SVG_CP_1)" fill="#FFFFFF" fill-rule="evenodd" stroke="none" d="M7.67244,16.73363L7.67244,27.73002L
			8.15197,27.73002L8.15197,16.73363L7.67244,16.73363z"/>
		<path clip-path="url(#SVG_CP_1)" fill="#FFFFFF" fill-rule="evenodd" stroke="none" d="M8.15197,16.73363L8.15197,27.73002L
			8.6315,27.73002L8.6315,16.73363L8.15197,16.73363z"/>
		<path clip-path="url(#SVG_CP_1)" fill="#FFFCFF" fill-rule="evenodd" stroke="none" d="M8.6315,16.73363L8.6315,27.73002L9.11103,27.73002
			L9.11103,16.73363L8.6315,16.73363z"/>
		<path clip-path="url(#SVG_CP_1)" fill="#FCFAFC" fill-rule="evenodd" stroke="none" d="M9.11103,16.73363L9.11103,27.73002L
			9.59056,27.73002L9.59056,16.73363L9.11103,16.73363z"/>
		<path clip-path="url(#SVG_CP_1)" fill="#FCFAFC" fill-rule="evenodd" stroke="none" d="M9.59056,16.73363L9.59056,27.73002L
			10.07008,27.73002L10.07008,16.73363L9.59056,16.73363z"/>
		<path clip-path="url(#SVG_CP_1)" fill="#FCFAFC" fill-rule="evenodd" stroke="none" d="M10.07008,16.73363L10.07008,27.73002
			L10.54961,27.73002L10.54961,16.73363L10.07008,16.73363z"/>
		<path clip-path="url(#SVG_CP_1)" fill="#FCFAFC" fill-rule="evenodd" stroke="none" d="M10.54961,16.73363L10.54961,27.73002
			L11.02914,27.73002L11.02914,16.73363L10.54961,16.73363z"/>
		<path clip-path="url(#SVG_CP_1)" fill="#FCFAFC" fill-rule="evenodd" stroke="none" d="M11.02914,16.73363L11.02914,27.73002
			L11.50867,27.73002L11.50867,16.73363L11.02914,16.73363z"/>
		<path clip-path="url(#SVG_CP_1)" fill="#FCFAFC" fill-rule="evenodd" stroke="none" d="M11.50867,16.73363L11.50867,27.73002
			L11.98819,27.73002L11.98819,16.73363L11.50867,16.73363z"/>
		<path clip-path="url(#SVG_CP_1)" fill="#FCF7FC" fill-rule="evenodd" stroke="none" d="M11.98819,16.73363L11.98819,27.73002
			L12.46772,27.73002L12.46772,16.73363L11.98819,16.73363z"/>
		<path clip-path="url(#SVG_CP_1)" fill="#FCF7FC" fill-rule="evenodd" stroke="none" d="M12.46772,16.73363L12.46772,27.73002
			L12.94725,27.73002L12.94725,16.73363L12.46772,16.73363z"/>
		<path clip-path="url(#SVG_CP_1)" fill="#FAF5FA" fill-rule="evenodd" stroke="none" d="M12.94725,16.73363L12.94725,27.73002
			L13.42678,27.73002L13.42678,16.73363L12.94725,16.73363z"/>
		<path clip-path="url(#SVG_CP_1)" fill="#FAF5FA" fill-rule="evenodd" stroke="none" d="M13.42678,16.73363L13.42678,27.73002
			L13.90631,27.73002L13.90631,16.73363L13.42678,16.73363z"/>
		<path clip-path="url(#SVG_CP_1)" fill="#FAF5FA" fill-rule="evenodd" stroke="none" d="M13.90631,16.73363L13.90631,27.73002
			L14.38583,27.73002L14.38583,16.73363L13.90631,16.73363z"/>
		<path clip-path="url(#SVG_CP_1)" fill="#FAF5FA" fill-rule="evenodd" stroke="none" d="M14.38583,16.73363L14.38583,27.73002
			L14.86536,27.73002L14.86536,16.73363L14.38583,16.73363z"/>
		<path clip-path="url(#SVG_CP_1)" fill="#FAF5FA" fill-rule="evenodd" stroke="none" d="M14.86536,16.73363L14.86536,27.73002
			L15.34489,27.73002L15.34489,16.73363L14.86536,16.73363z"/>
		<path clip-path="url(#SVG_CP_1)" fill="#FAF2FA" fill-rule="evenodd" stroke="none" d="M15.34489,16.73363L15.34489,27.73002
			L15.82442,27.73002L15.82442,16.73363L15.34489,16.73363z"/>
		<path clip-path="url(#SVG_CP_1)" fill="#FAF2FA" fill-rule="evenodd" stroke="none" d="M15.82442,16.73363L15.82442,27.73002
			L16.30394,27.73002L16.30394,16.73363L15.82442,16.73363z"/>
		<path clip-path="url(#SVG_CP_1)" fill="#FAF2FA" fill-rule="evenodd" stroke="none" d="M16.30394,16.73363L16.30394,27.73002
			L16.78347,27.73002L16.78347,16.73363L16.30394,16.73363z"/>
		<path clip-path="url(#SVG_CP_1)" fill="#F7F0F7" fill-rule="evenodd" stroke="none" d="M16.78347,16.73363L16.78347,27.73002
			L17.263,27.73002L17.263,16.73363L16.78347,16.73363z"/>
		<path clip-path="url(#SVG_CP_1)" fill="#F7F0F7" fill-rule="evenodd" stroke="none" d="M17.263,16.73363L17.263,27.73002L17.74253,27.73002
			L17.74253,16.73363L17.263,16.73363z"/>
		<path clip-path="url(#SVG_CP_1)" fill="#F7F0F7" fill-rule="evenodd" stroke="none" d="M17.74253,16.73363L17.74253,27.73002
			L18.22206,27.73002L18.22206,16.73363L17.74253,16.73363z"/>
		<path clip-path="url(#SVG_CP_1)" fill="#F7F0F7" fill-rule="evenodd" stroke="none" d="M18.22206,16.73363L18.22206,27.73002
			L18.70158,27.73002L18.70158,16.73363L18.22206,16.73363z"/>
		<path clip-path="url(#SVG_CP_1)" fill="#F7EDF7" fill-rule="evenodd" stroke="none" d="M18.70158,16.73363L18.70158,27.73002
			L19.18111,27.73002L19.18111,16.73363L18.70158,16.73363z"/>
		<path clip-path="url(#SVG_CP_1)" fill="#F7EDF7" fill-rule="evenodd" stroke="none" d="M19.18111,16.73363L19.18111,27.73002
			L19.66064,27.73002L19.66064,16.73363L19.18111,16.73363z"/>
		<path clip-path="url(#SVG_CP_1)" fill="#F7EDF7" fill-rule="evenodd" stroke="none" d="M19.66064,16.73363L19.66064,27.73002
			L20.14017,27.73002L20.14017,16.73363L19.66064,16.73363z"/>
		<path clip-path="url(#SVG_CP_1)" fill="#F7EDF7" fill-rule="evenodd" stroke="none" d="M20.14017,16.73363L20.14017,27.73002
			L20.61969,27.73002L20.61969,16.73363L20.14017,16.73363z"/>
		<path clip-path="url(#SVG_CP_1)" fill="#F7EDF7" fill-rule="evenodd" stroke="none" d="M20.61969,16.73363L20.61969,27.73002
			L21.09922,27.73002L21.09922,16.73363L20.61969,16.73363z"/>
		<path clip-path="url(#SVG_CP_1)" fill="#F5EBF4" fill-rule="evenodd" stroke="none" d="M21.09922,16.73363L21.09922,27.73002
			L21.57875,27.73002L21.57875,16.73363L21.09922,16.73363z"/>
		<path clip-path="url(#SVG_CP_1)" fill="#F5EBF4" fill-rule="evenodd" stroke="none" d="M21.57875,16.73363L21.57875,27.73002
			L22.05828,27.73002L22.05828,16.73363L21.57875,16.73363z"/>
		<path clip-path="url(#SVG_CP_1)" fill="#F5E9F4" fill-rule="evenodd" stroke="none" d="M22.05828,16.73363L22.05828,27.73002
			L22.5378,27.73002L22.5378,16.73363L22.05828,16.73363z"/>
		<path clip-path="url(#SVG_CP_1)" fill="#F5E9F4" fill-rule="evenodd" stroke="none" d="M22.5378,16.73363L22.5378,27.73002L
			23.01733,27.73002L23.01733,16.73363L22.5378,16.73363z"/>
		<path clip-path="url(#SVG_CP_1)" fill="#F5E9F4" fill-rule="evenodd" stroke="none" d="M23.01733,16.73363L23.01733,27.73002
			L23.49686,27.73002L23.49686,16.73363L23.01733,16.73363z"/>
		<path clip-path="url(#SVG_CP_1)" fill="#F5E9F4" fill-rule="evenodd" stroke="none" d="M23.49686,16.73363L23.49686,27.73002
			L23.97639,27.73002L23.97639,16.73363L23.49686,16.73363z"/>
		<path clip-path="url(#SVG_CP_1)" fill="#F5E9F4" fill-rule="evenodd" stroke="none" d="M23.97639,16.73363L23.97639,27.73002
			L24.45592,27.73002L24.45592,16.73363L23.97639,16.73363z"/>
		<path clip-path="url(#SVG_CP_1)" fill="#F5E9F4" fill-rule="evenodd" stroke="none" d="M24.45592,16.73363L24.45592,27.73002
			L24.93544,27.73002L24.93544,16.73363L24.45592,16.73363z"/>
		<path clip-path="url(#SVG_CP_1)" fill="#F2E4F2" fill-rule="evenodd" stroke="none" d="M24.93544,16.73363L24.93544,27.73002
			L25.41497,27.73002L25.41497,16.73363L24.93544,16.73363z"/>
		<path clip-path="url(#SVG_CP_1)" fill="#F2E4F2" fill-rule="evenodd" stroke="none" d="M25.41497,16.73363L25.41497,27.73002
			L25.8945,27.73002L25.8945,16.73363L25.41497,16.73363z"/>
		<path clip-path="url(#SVG_CP_1)" fill="#F2E4F2" fill-rule="evenodd" stroke="none" d="M25.8945,16.73363L25.8945,27.73002L
			26.37403,27.73002L26.37403,16.73363L25.8945,16.73363z"/>
		<path clip-path="url(#SVG_CP_1)" fill="#F2E4F2" fill-rule="evenodd" stroke="none" d="M26.37403,16.73363L26.37403,27.73002
			L26.85355,27.73002L26.85355,16.73363L26.37403,16.73363z"/>
		<path clip-path="url(#SVG_CP_1)" fill="#F2E4F2" fill-rule="evenodd" stroke="none" d="M26.85355,16.73363L26.85355,27.73002
			L27.33308,27.73002L27.33308,16.73363L26.85355,16.73363z"/>
		<path clip-path="url(#SVG_CP_1)" fill="#F2E4F2" fill-rule="evenodd" stroke="none" d="M27.33308,16.73363L27.33308,27.73002
			L27.81261,27.73002L27.81261,16.73363L27.33308,16.73363z"/>
		<path clip-path="url(#SVG_CP_1)" fill="#F2E4F2" fill-rule="evenodd" stroke="none" d="M27.81261,16.73363L27.81261,27.73002
			L28.29214,27.73002L28.29214,16.73363L27.81261,16.73363z"/>
		<path clip-path="url(#SVG_CP_1)" fill="#F2E1F2" fill-rule="evenodd" stroke="none" d="M28.29214,16.73363L28.29214,27.73002
			L28.77167,27.73002L28.77167,16.73363L28.29214,16.73363z"/>
		<path clip-path="url(#SVG_CP_1)" fill="#F2E1F2" fill-rule="evenodd" stroke="none" d="M28.77167,16.73363L28.77167,27.73002
			L29.25119,27.73002L29.25119,16.73363L28.77167,16.73363z"/>
		<path clip-path="url(#SVG_CP_1)" fill="#F0DFEF" fill-rule="evenodd" stroke="none" d="M29.25119,16.73363L29.25119,27.73002
			L29.73072,27.73002L29.73072,16.73363L29.25119,16.73363z"/>
		<path clip-path="url(#SVG_CP_1)" fill="#F0DFEF" fill-rule="evenodd" stroke="none" d="M29.73072,16.73363L29.73072,27.73002
			L30.21025,27.73002L30.21025,16.73363L29.73072,16.73363z"/>
		<path clip-path="url(#SVG_CP_1)" fill="#F0DFEF" fill-rule="evenodd" stroke="none" d="M30.21025,16.73363L30.21025,27.73002
			L30.68978,27.73002L30.68978,16.73363L30.21025,16.73363z"/>
		<path clip-path="url(#SVG_CP_1)" fill="#F0DFEF" fill-rule="evenodd" stroke="none" d="M30.68978,16.73363L30.68978,27.73002
			L31.1693,27.73002L31.1693,16.73363L30.68978,16.73363z"/>
		<path clip-path="url(#SVG_CP_1)" fill="#F0DFEF" fill-rule="evenodd" stroke="none" d="M31.1693,16.73363L31.1693,27.73002L
			31.64883,27.73002L31.64883,16.73363L31.1693,16.73363z"/>
		<path clip-path="url(#SVG_CP_1)" fill="#F0DDEF" fill-rule="evenodd" stroke="none" d="M31.64883,16.73363L31.64883,27.73002
			L32.12836,27.73002L32.12836,16.73363L31.64883,16.73363z"/>
		<path clip-path="url(#SVG_CP_1)" fill="#F0DDEF" fill-rule="evenodd" stroke="none" d="M32.12836,16.73363L32.12836,27.73002
			L32.60789,27.73002L32.60789,16.73363L32.12836,16.73363z"/>
		<path clip-path="url(#SVG_CP_1)" fill="#F0DDEF" fill-rule="evenodd" stroke="none" d="M32.60789,16.73363L32.60789,27.73002
			L33.08742,27.73002L33.08742,16.73363L32.60789,16.73363z"/>
		<path clip-path="url(#SVG_CP_1)" fill="#EDDAED" fill-rule="evenodd" stroke="none" d="M33.08742,16.73363L33.08742,27.73002
			L33.56694,27.73002L33.56694,16.73363L33.08742,16.73363z"/>
		<path clip-path="url(#SVG_CP_1)" fill="#EDDAED" fill-rule="evenodd" stroke="none" d="M33.56694,16.73363L33.56694,27.73002
			L34.04647,27.73002L34.04647,16.73363L33.56694,16.73363z"/>
		<path clip-path="url(#SVG_CP_1)" fill="#EDDAED" fill-rule="evenodd" stroke="none" d="M34.04647,16.73363L34.04647,27.73002
			L34.526,27.73002L34.526,16.73363L34.04647,16.73363z"/>
		<path clip-path="url(#SVG_CP_1)" fill="#EDDAED" fill-rule="evenodd" stroke="none" d="M34.526,16.73363L34.526,27.73002L35.00553,27.73002
			L35.00553,16.73363L34.526,16.73363z"/>
		<path clip-path="url(#SVG_CP_1)" fill="#EDD8EC" fill-rule="evenodd" stroke="none" d="M35.00553,16.73363L35.00553,27.73002
			L35.48505,27.73002L35.48505,16.73363L35.00553,16.73363z"/>
		<path clip-path="url(#SVG_CP_1)" fill="#EDD8EC" fill-rule="evenodd" stroke="none" d="M35.48505,16.73363L35.48505,27.73002
			L35.96458,27.73002L35.96458,16.73363L35.48505,16.73363z"/>
		<path clip-path="url(#SVG_CP_1)" fill="#EDD8EC" fill-rule="evenodd" stroke="none" d="M35.96458,16.73363L35.96458,27.73002
			L36.44411,27.73002L36.44411,16.73363L35.96458,16.73363z"/>
		<path clip-path="url(#SVG_CP_1)" fill="#EDD8EC" fill-rule="evenodd" stroke="none" d="M36.44411,16.73363L36.44411,27.73002
			L36.92364,27.73002L36.92364,16.73363L36.44411,16.73363z"/>
		<path clip-path="url(#SVG_CP_1)" fill="#EBD5EA" fill-rule="evenodd" stroke="none" d="M36.92364,16.73363L36.92364,27.73002
			L37.40317,27.73002L37.40317,16.73363L36.92364,16.73363z"/>
		<path clip-path="url(#SVG_CP_1)" fill="#EBD5EA" fill-rule="evenodd" stroke="none" d="M37.40317,16.73363L37.40317,27.73002
			L37.88269,27.73002L37.88269,16.73363L37.40317,16.73363z"/>
		<path clip-path="url(#SVG_CP_1)" fill="#EBD3EA" fill-rule="evenodd" stroke="none" d="M37.88269,16.73363L37.88269,27.73002
			L38.36222,27.73002L38.36222,16.73363L37.88269,16.73363z"/>
		<path clip-path="url(#SVG_CP_1)" fill="#EBD3EA" fill-rule="evenodd" stroke="none" d="M38.36222,16.73363L38.36222,27.73002
			L38.84175,27.73002L38.84175,16.73363L38.36222,16.73363z"/>
		<path clip-path="url(#SVG_CP_1)" fill="#EBD3EA" fill-rule="evenodd" stroke="none" d="M38.84175,16.73363L38.84175,27.73002
			L39.32128,27.73002L39.32128,16.73363L38.84175,16.73363z"/>
		<path clip-path="url(#SVG_CP_1)" fill="#EBD3EA" fill-rule="evenodd" stroke="none" d="M39.32128,16.73363L39.32128,27.73002
			L39.8008,27.73002L39.8008,16.73363L39.32128,16.73363z"/>
		<path clip-path="url(#SVG_CP_1)" fill="#EBD3EA" fill-rule="evenodd" stroke="none" d="M39.8008,16.73363L39.8008,27.73002L
			40.28033,27.73002L40.28033,16.73363L39.8008,16.73363z"/>
		<path clip-path="url(#SVG_CP_1)" fill="#EBD3EA" fill-rule="evenodd" stroke="none" d="M40.28033,16.73363L40.28033,27.73002
			L40.75986,27.73002L40.75986,16.73363L40.28033,16.73363z"/>
		<path clip-path="url(#SVG_CP_1)" fill="#EBD3EA" fill-rule="evenodd" stroke="none" d="M40.75986,16.73363L40.75986,27.73002
			L41.23939,27.73002L41.23939,16.73363L40.75986,16.73363z"/>
		<path clip-path="url(#SVG_CP_1)" fill="#E8CFE7" fill-rule="evenodd" stroke="none" d="M41.23939,16.73363L41.23939,27.73002
			L41.71891,27.73002L41.71891,16.73363L41.23939,16.73363z"/>
		<path clip-path="url(#SVG_CP_1)" fill="#E8CFE7" fill-rule="evenodd" stroke="none" d="M41.71891,16.73363L41.71891,27.73002
			L42.19844,27.73002L42.19844,16.73363L41.71891,16.73363z"/>
		<path clip-path="url(#SVG_CP_1)" fill="#E8CFE7" fill-rule="evenodd" stroke="none" d="M42.19844,16.73363L42.19844,27.73002
			L42.67797,27.73002L42.67797,16.73363L42.19844,16.73363z"/>
		<path clip-path="url(#SVG_CP_1)" fill="#E8CFE7" fill-rule="evenodd" stroke="none" d="M42.67797,16.73363L42.67797,27.73002
			L43.1575,27.73002L43.1575,16.73363L42.67797,16.73363z"/>
		<path clip-path="url(#SVG_CP_1)" fill="#E8CFE7" fill-rule="evenodd" stroke="none" d="M43.1575,16.73363L43.1575,27.73002L
			43.63703,27.73002L43.63703,16.73363L43.1575,16.73363z"/>
		<path clip-path="url(#SVG_CP_1)" fill="#E8CFE7" fill-rule="evenodd" stroke="none" d="M43.63703,16.73363L43.63703,27.73002
			L44.11655,27.73002L44.11655,16.73363L43.63703,16.73363z"/>
		<path clip-path="url(#SVG_CP_1)" fill="#E8CCE8" fill-rule="evenodd" stroke="none" d="M44.11655,16.73363L44.11655,27.73002
			L44.59608,27.73002L44.59608,16.73363L44.11655,16.73363z"/>
		<path clip-path="url(#SVG_CP_1)" fill="#E8CCE8" fill-rule="evenodd" stroke="none" d="M44.59608,16.73363L44.59608,27.73002
			L45.07561,27.73002L45.07561,16.73363L44.59608,16.73363z"/>
		<path clip-path="url(#SVG_CP_1)" fill="#E6CAE5" fill-rule="evenodd" stroke="none" d="M45.07561,16.73363L45.07561,27.73002
			L45.55514,27.73002L45.55514,16.73363L45.07561,16.73363z"/>
		<path clip-path="url(#SVG_CP_1)" fill="#E6CAE5" fill-rule="evenodd" stroke="none" d="M45.55514,16.73363L45.55514,27.73002
			L46.03466,27.73002L46.03466,16.73363L45.55514,16.73363z"/>
		<path clip-path="url(#SVG_CP_1)" fill="#E6CAE5" fill-rule="evenodd" stroke="none" d="M46.03466,16.73363L46.03466,27.73002
			L46.51419,27.73002L46.51419,16.73363L46.03466,16.73363z"/>
		<path clip-path="url(#SVG_CP_1)" fill="#E6CAE5" fill-rule="evenodd" stroke="none" d="M46.51419,16.73363L46.51419,27.73002
			L46.99372,27.73002L46.99372,16.73363L46.51419,16.73363z"/>
		<path clip-path="url(#SVG_CP_1)" fill="#E6CAE5" fill-rule="evenodd" stroke="none" d="M46.99372,16.73363L46.99372,27.73002
			L47.47325,27.73002L47.47325,16.73363L46.99372,16.73363z"/>
		<path clip-path="url(#SVG_CP_1)" fill="#E6C8E5" fill-rule="evenodd" stroke="none" d="M47.47325,16.73363L47.47325,27.73002
			L47.95278,27.73002L47.95278,16.73363L47.47325,16.73363z"/>
		<path clip-path="url(#SVG_CP_1)" fill="#E6C8E5" fill-rule="evenodd" stroke="none" d="M47.95278,16.73363L47.95278,27.73002
			L48.4323,27.73002L48.4323,16.73363L47.95278,16.73363z"/>
		<path clip-path="url(#SVG_CP_1)" fill="#E6C8E5" fill-rule="evenodd" stroke="none" d="M48.4323,16.73363L48.4323,27.73002L
			48.91183,27.73002L48.91183,16.73363L48.4323,16.73363z"/>
		<path clip-path="url(#SVG_CP_1)" fill="#E3C5E2" fill-rule="evenodd" stroke="none" d="M48.91183,16.73363L48.91183,27.73002
			L49.39136,27.73002L49.39136,16.73363L48.91183,16.73363z"/>
		<path clip-path="url(#SVG_CP_1)" fill="#E3C5E2" fill-rule="evenodd" stroke="none" d="M49.39136,16.73363L49.39136,27.73002
			L49.87089,27.73002L49.87089,16.73363L49.39136,16.73363z"/>
		<path clip-path="url(#SVG_CP_1)" fill="#E3C5E2" fill-rule="evenodd" stroke="none" d="M49.87089,16.73363L49.87089,27.73002
			L50.35041,27.73002L50.35041,16.73363L49.87089,16.73363z"/>
		<path clip-path="url(#SVG_CP_1)" fill="#E3C3E2" fill-rule="evenodd" stroke="none" d="M50.35041,16.73363L50.35041,27.73002
			L50.82994,27.73002L50.82994,16.73363L50.35041,16.73363z"/>
		<path clip-path="url(#SVG_CP_1)" fill="#E3C3E2" fill-rule="evenodd" stroke="none" d="M50.82994,16.73363L50.82994,27.73002
			L51.30947,27.73002L51.30947,16.73363L50.82994,16.73363z"/>
		<path clip-path="url(#SVG_CP_1)" fill="#E3C3E2" fill-rule="evenodd" stroke="none" d="M51.30947,16.73363L51.30947,27.73002
			L51.789,27.73002L51.789,16.73363L51.30947,16.73363z"/>
		<path clip-path="url(#SVG_CP_1)" fill="#E3C3E2" fill-rule="evenodd" stroke="none" d="M51.789,16.73363L51.789,27.73002L52.26853,27.73002
			L52.26853,16.73363L51.789,16.73363z"/>
		<path clip-path="url(#SVG_CP_1)" fill="#E3C3E2" fill-rule="evenodd" stroke="none" d="M52.26853,16.73363L52.26853,27.73002
			L52.74805,27.73002L52.74805,16.73363L52.26853,16.73363z"/>
		<path clip-path="url(#SVG_CP_1)" fill="#E3C3E2" fill-rule="evenodd" stroke="none" d="M52.74805,16.73363L52.74805,27.73002
			L53.22758,27.73002L53.22758,16.73363L52.74805,16.73363z"/>
		<path clip-path="url(#SVG_CP_1)" fill="#E0C1E0" fill-rule="evenodd" stroke="none" d="M53.22758,16.73363L53.22758,27.73002
			L53.70711,27.73002L53.70711,16.73363L53.22758,16.73363z"/>
		<path clip-path="url(#SVG_CP_1)" fill="#E0BFE0" fill-rule="evenodd" stroke="none" d="M53.70711,16.73363L53.70711,27.73002
			L54.18664,27.73002L54.18664,16.73363L53.70711,16.73363z"/>
		<path clip-path="url(#SVG_CP_1)" fill="#E0BFE0" fill-rule="evenodd" stroke="none" d="M54.18664,16.73363L54.18664,27.73002
			L54.66616,27.73002L54.66616,16.73363L54.18664,16.73363z"/>
		<path clip-path="url(#SVG_CP_1)" fill="#E0BFE0" fill-rule="evenodd" stroke="none" d="M54.66616,16.73363L54.66616,27.73002
			L55.14569,27.73002L55.14569,16.73363L54.66616,16.73363z"/>
		<path clip-path="url(#SVG_CP_1)" fill="#E0BFE0" fill-rule="evenodd" stroke="none" d="M55.14569,16.73363L55.14569,27.73002
			L55.62522,27.73002L55.62522,16.73363L55.14569,16.73363z"/>
		<path clip-path="url(#SVG_CP_1)" fill="#E0BFE0" fill-rule="evenodd" stroke="none" d="M55.62522,16.73363L55.62522,27.73002
			L56.10475,27.73002L56.10475,16.73363L55.62522,16.73363z"/>
		<path clip-path="url(#SVG_CP_1)" fill="#E0BFE0" fill-rule="evenodd" stroke="none" d="M56.10475,16.73363L56.10475,27.73002
			L56.58428,27.73002L56.58428,16.73363L56.10475,16.73363z"/>
		<path clip-path="url(#SVG_CP_1)" fill="#E0BCE0" fill-rule="evenodd" stroke="none" d="M56.58428,16.73363L56.58428,27.73002
			L57.0638,27.73002L57.0638,16.73363L56.58428,16.73363z"/>
		<path clip-path="url(#SVG_CP_1)" fill="#DEBADD" fill-rule="evenodd" stroke="none" d="M57.0638,16.73363L57.0638,27.73002L
			57.54333,27.73002L57.54333,16.73363L57.0638,16.73363z"/>
		<path clip-path="url(#SVG_CP_1)" fill="#DEBADD" fill-rule="evenodd" stroke="none" d="M57.54333,16.73363L57.54333,27.73002
			L58.02286,27.73002L58.02286,16.73363L57.54333,16.73363z"/>
		<path clip-path="url(#SVG_CP_1)" fill="#DEBADD" fill-rule="evenodd" stroke="none" d="M58.02286,16.73363L58.02286,27.73002
			L58.50239,27.73002L58.50239,16.73363L58.02286,16.73363z"/>
		<path clip-path="url(#SVG_CP_1)" fill="#DEBADD" fill-rule="evenodd" stroke="none" d="M58.50239,16.73363L58.50239,27.73002
			L58.98191,27.73002L58.98191,16.73363L58.50239,16.73363z"/>
		<path clip-path="url(#SVG_CP_1)" fill="#DEBADD" fill-rule="evenodd" stroke="none" d="M58.98191,16.73363L58.98191,27.73002
			L59.46144,27.73002L59.46144,16.73363L58.98191,16.73363z"/>
		<path clip-path="url(#SVG_CP_1)" fill="#DEBADD" fill-rule="evenodd" stroke="none" d="M59.46144,16.73363L59.46144,27.73002
			L59.94097,27.73002L59.94097,16.73363L59.46144,16.73363z"/>
		<path clip-path="url(#SVG_CP_1)" fill="#DEB8DD" fill-rule="evenodd" stroke="none" d="M59.94097,16.73363L59.94097,27.73002
			L60.4205,27.73002L60.4205,16.73363L59.94097,16.73363z"/>
		<path clip-path="url(#SVG_CP_1)" fill="#DEB8DD" fill-rule="evenodd" stroke="none" d="M60.4205,16.73363L60.4205,27.73002L
			60.90002,27.73002L60.90002,16.73363L60.4205,16.73363z"/>
		<path clip-path="url(#SVG_CP_1)" fill="#DBB6DB" fill-rule="evenodd" stroke="none" d="M60.90002,16.73363L60.90002,27.73002
			L61.37955,27.73002L61.37955,16.73363L60.90002,16.73363z"/>
		<path clip-path="url(#SVG_CP_1)" fill="#DBB6DB" fill-rule="evenodd" stroke="none" d="M61.37955,16.73363L61.37955,27.73002
			L61.85908,27.73002L61.85908,16.73363L61.37955,16.73363z"/>
		<path clip-path="url(#SVG_CP_1)" fill="#DBB6DB" fill-rule="evenodd" stroke="none" d="M61.85908,16.73363L61.85908,27.73002
			L62.33861,27.73002L62.33861,16.73363L61.85908,16.73363z"/>
		<path clip-path="url(#SVG_CP_1)" fill="#DBB6DB" fill-rule="evenodd" stroke="none" d="M62.33861,16.73363L62.33861,27.73002
			L62.81814,27.73002L62.81814,16.73363L62.33861,16.73363z"/>
		<path clip-path="url(#SVG_CP_1)" fill="#DBB4DB" fill-rule="evenodd" stroke="none" d="M62.81814,16.73363L62.81814,27.73002
			L63.29766,27.73002L63.29766,16.73363L62.81814,16.73363z"/>
		<path clip-path="url(#SVG_CP_1)" fill="#DBB4DB" fill-rule="evenodd" stroke="none" d="M63.29766,16.73363L63.29766,27.73002
			L63.77719,27.73002L63.77719,16.73363L63.29766,16.73363z"/>
		<path clip-path="url(#SVG_CP_1)" fill="#DBB4DB" fill-rule="evenodd" stroke="none" d="M63.77719,16.73363L63.77719,27.73002
			L64.25672,27.73002L64.25672,16.73363L63.77719,16.73363z"/>
		<path clip-path="url(#SVG_CP_1)" fill="#DBB4DB" fill-rule="evenodd" stroke="none" d="M64.25672,16.73363L64.25672,27.73002
			L64.73625,27.73002L64.73625,16.73363L64.25672,16.73363z"/>
		<path clip-path="url(#SVG_CP_1)" fill="#D9B2D8" fill-rule="evenodd" stroke="none" d="M64.73625,16.73363L64.73625,27.73002
			L65.21577,27.73002L65.21577,16.73363L64.73625,16.73363z"/>
		<path clip-path="url(#SVG_CP_1)" fill="#D9B2D8" fill-rule="evenodd" stroke="none" d="M65.21577,16.73363L65.21577,27.73002
			L65.6953,27.73002L65.6953,16.73363L65.21577,16.73363z"/>
		<path clip-path="url(#SVG_CP_1)" fill="#D9B0D8" fill-rule="evenodd" stroke="none" d="M65.6953,16.73363L65.6953,27.73002L
			66.17483,27.73002L66.17483,16.73363L65.6953,16.73363z"/>
		<path clip-path="url(#SVG_CP_1)" fill="#D9B0D8" fill-rule="evenodd" stroke="none" d="M66.17483,16.73363L66.17483,27.73002
			L66.65436,27.73002L66.65436,16.73363L66.17483,16.73363z"/>
		<path clip-path="url(#SVG_CP_1)" fill="#D9B0D8" fill-rule="evenodd" stroke="none" d="M66.65436,16.73363L66.65436,27.73002
			L67.13389,27.73002L67.13389,16.73363L66.65436,16.73363z"/>
		<path clip-path="url(#SVG_CP_1)" fill="#D9B0D8" fill-rule="evenodd" stroke="none" d="M67.13389,16.73363L67.13389,27.73002
			L67.61341,27.73002L67.61341,16.73363L67.13389,16.73363z"/>
		<path clip-path="url(#SVG_CP_1)" fill="#D9B0D8" fill-rule="evenodd" stroke="none" d="M67.61341,16.73363L67.61341,27.73002
			L68.09294,27.73002L68.09294,16.73363L67.61341,16.73363z"/>
		<path clip-path="url(#SVG_CP_1)" fill="#D9B0D8" fill-rule="evenodd" stroke="none" d="M68.09294,16.73363L68.09294,27.73002
			L68.57247,27.73002L68.57247,16.73363L68.09294,16.73363z"/>
		<path clip-path="url(#SVG_CP_1)" fill="#D9ADD8" fill-rule="evenodd" stroke="none" d="M68.57247,16.73363L68.57247,27.73002
			L69.052,27.73002L69.052,16.73363L68.57247,16.73363z"/>
		<path clip-path="url(#SVG_CP_1)" fill="#D6ABD5" fill-rule="evenodd" stroke="none" d="M69.052,16.73363L69.052,27.73002L69.53152,27.73002
			L69.53152,16.73363L69.052,16.73363z"/>
		<path clip-path="url(#SVG_CP_1)" fill="#D6ABD5" fill-rule="evenodd" stroke="none" d="M69.53152,16.73363L69.53152,27.73002
			L70.01105,27.73002L70.01105,16.73363L69.53152,16.73363z"/>
		<path clip-path="url(#SVG_CP_1)" fill="#D6ABD5" fill-rule="evenodd" stroke="none" d="M70.01105,16.73363L70.01105,27.73002
			L70.49058,27.73002L70.49058,16.73363L70.01105,16.73363z"/>
		<path clip-path="url(#SVG_CP_1)" fill="#D6ABD5" fill-rule="evenodd" stroke="none" d="M70.49058,16.73363L70.49058,27.73002
			L70.97011,27.73002L70.97011,16.73363L70.49058,16.73363z"/>
		<path clip-path="url(#SVG_CP_1)" fill="#D6ABD5" fill-rule="evenodd" stroke="none" d="M70.97011,16.73363L70.97011,27.73002
			L71.44964,27.73002L71.44964,16.73363L70.97011,16.73363z"/>
		<path clip-path="url(#SVG_CP_1)" fill="#D6ABD5" fill-rule="evenodd" stroke="none" d="M71.44964,16.73363L71.44964,27.73002
			L71.92916,27.73002L71.92916,16.73363L71.44964,16.73363z"/>
		<path clip-path="url(#SVG_CP_1)" fill="#D6A9D5" fill-rule="evenodd" stroke="none" d="M71.92916,16.73363L71.92916,27.73002
			L72.40869,27.73002L72.40869,16.73363L71.92916,16.73363z"/>
		<path clip-path="url(#SVG_CP_1)" fill="#D6A9D5" fill-rule="evenodd" stroke="none" d="M72.40869,16.73363L72.40869,27.73002
			L72.88822,27.73002L72.88822,16.73363L72.40869,16.73363z"/>
		<path clip-path="url(#SVG_CP_1)" fill="#D4A7D3" fill-rule="evenodd" stroke="none" d="M72.88822,16.73363L72.88822,27.73002
			L73.36775,27.73002L73.36775,16.73363L72.88822,16.73363z"/>
		<path clip-path="url(#SVG_CP_1)" fill="#D4A7D3" fill-rule="evenodd" stroke="none" d="M73.36775,16.73363L73.36775,27.73002
			L73.84727,27.73002L73.84727,16.73363L73.36775,16.73363z"/>
		<path clip-path="url(#SVG_CP_1)" fill="#D4A7D3" fill-rule="evenodd" stroke="none" d="M73.84727,16.73363L73.84727,27.73002
			L74.3268,27.73002L74.3268,16.73363L73.84727,16.73363z"/>
		<path clip-path="url(#SVG_CP_1)" fill="#D4A7D3" fill-rule="evenodd" stroke="none" d="M74.3268,16.73363L74.3268,27.73002L
			74.80633,27.73002L74.80633,16.73363L74.3268,16.73363z"/>
		<path clip-path="url(#SVG_CP_1)" fill="#D4A5D3" fill-rule="evenodd" stroke="none" d="M74.80633,16.73363L74.80633,27.73002
			L75.28586,27.73002L75.28586,16.73363L74.80633,16.73363z"/>
		<path clip-path="url(#SVG_CP_1)" fill="#D4A5D3" fill-rule="evenodd" stroke="none" d="M75.28586,16.73363L75.28586,27.73002
			L75.76539,27.73002L75.76539,16.73363L75.28586,16.73363z"/>
		<path clip-path="url(#SVG_CP_1)" fill="#D4A5D3" fill-rule="evenodd" stroke="none" d="M75.76539,16.73363L75.76539,27.73002
			L76.24491,27.73002L76.24491,16.73363L75.76539,16.73363z"/>
		<path clip-path="url(#SVG_CP_1)" fill="#D4A5D3" fill-rule="evenodd" stroke="none" d="M76.24491,16.73363L76.24491,27.73002
			L76.72444,27.73002L76.72444,16.73363L76.24491,16.73363z"/>
		<path clip-path="url(#SVG_CP_1)" fill="#D1A3D0" fill-rule="evenodd" stroke="none" d="M76.72444,16.73363L76.72444,27.73002
			L77.20397,27.73002L77.20397,16.73363L76.72444,16.73363z"/>
		<path clip-path="url(#SVG_CP_1)" fill="#D1A3D0" fill-rule="evenodd" stroke="none" d="M77.20397,16.73363L77.20397,27.73002
			L77.6835,27.73002L77.6835,16.73363L77.20397,16.73363z"/>
		<path clip-path="url(#SVG_CP_1)" fill="#D1A1D0" fill-rule="evenodd" stroke="none" d="M77.6835,16.73363L77.6835,27.73002L
			78.16302,27.73002L78.16302,16.73363L77.6835,16.73363z"/>
		<path clip-path="url(#SVG_CP_1)" fill="#D1A1D0" fill-rule="evenodd" stroke="none" d="M78.16302,16.73363L78.16302,27.73002
			L78.64255,27.73002L78.64255,16.73363L78.16302,16.73363z"/>
		<path clip-path="url(#SVG_CP_1)" fill="#D1A1D0" fill-rule="evenodd" stroke="none" d="M78.64255,16.73363L78.64255,27.73002
			L79.12208,27.73002L79.12208,16.73363L78.64255,16.73363z"/>
		<path clip-path="url(#SVG_CP_1)" fill="#D1A1D0" fill-rule="evenodd" stroke="none" d="M79.12208,16.73363L79.12208,27.73002
			L79.60161,27.73002L79.60161,16.73363L79.12208,16.73363z"/>
		<path clip-path="url(#SVG_CP_1)" fill="#D1A1D0" fill-rule="evenodd" stroke="none" d="M79.60161,16.73363L79.60161,27.73002
			L80.08113,27.73002L80.08113,16.73363L79.60161,16.73363z"/>
		<path clip-path="url(#SVG_CP_1)" fill="#D1A1D0" fill-rule="evenodd" stroke="none" d="M80.08113,16.73363L80.08113,27.73002
			L80.56066,27.73002L80.56066,16.73363L80.08113,16.73363z"/>
		<path clip-path="url(#SVG_CP_1)" fill="#D19FD0" fill-rule="evenodd" stroke="none" d="M80.56066,16.73363L80.56066,27.73002
			L81.04019,27.73002L81.04019,16.73363L80.56066,16.73363z"/>
		<path clip-path="url(#SVG_CP_1)" fill="#CF9DCE" fill-rule="evenodd" stroke="none" d="M81.04019,16.73363L81.04019,27.73002
			L81.51972,27.73002L81.51972,16.73363L81.04019,16.73363z"/>
		<path clip-path="url(#SVG_CP_1)" fill="#CF9DCE" fill-rule="evenodd" stroke="none" d="M81.51972,16.73363L81.51972,27.73002
			L81.99925,27.73002L81.99925,16.73363L81.51972,16.73363z"/>
		<path clip-path="url(#SVG_CP_1)" fill="#CF9DCE" fill-rule="evenodd" stroke="none" d="M81.99925,16.73363L81.99925,27.73002
			L82.47877,27.73002L82.47877,16.73363L81.99925,16.73363z"/>
		<path clip-path="url(#SVG_CP_1)" fill="#CF9DCE" fill-rule="evenodd" stroke="none" d="M82.47877,16.73363L82.47877,27.73002
			L82.9583,27.73002L82.9583,16.73363L82.47877,16.73363z"/>
		<path clip-path="url(#SVG_CP_1)" fill="#CF9DCE" fill-rule="evenodd" stroke="none" d="M82.9583,16.73363L82.9583,27.73002L
			83.43783,27.73002L83.43783,16.73363L82.9583,16.73363z"/>
		<path clip-path="url(#SVG_CP_1)" fill="#CF9BCE" fill-rule="evenodd" stroke="none" d="M83.43783,16.73363L83.43783,27.73002
			L83.91736,27.73002L83.91736,16.73363L83.43783,16.73363z"/>
		<path clip-path="url(#SVG_CP_1)" fill="#CF9BCE" fill-rule="evenodd" stroke="none" d="M83.91736,16.73363L83.91736,27.73002
			L84.39688,27.73002L84.39688,16.73363L83.91736,16.73363z"/>
		<path clip-path="url(#SVG_CP_1)" fill="#CF9BCE" fill-rule="evenodd" stroke="none" d="M84.39688,16.73363L84.39688,27.73002
			L84.87641,27.73002L84.87641,16.73363L84.39688,16.73363z"/>
		<path clip-path="url(#SVG_CP_1)" fill="#CC99CB" fill-rule="evenodd" stroke="none" d="M84.87641,16.73363L84.87641,27.73002
			L85.35594,27.73002L85.35594,16.73363L84.87641,16.73363z"/>
		<path clip-path="url(#SVG_CP_1)" fill="#CC99CB" fill-rule="evenodd" stroke="none" d="M85.35594,16.73363L85.35594,27.73002
			L85.83547,27.73002L85.83547,16.73363L85.35594,16.73363z"/>
		<path clip-path="url(#SVG_CP_1)" fill="#CC99CB" fill-rule="evenodd" stroke="none" d="M85.83547,16.73363L85.83547,27.73002
			L86.315,27.73002L86.315,16.73363L85.83547,16.73363z"/>
		<path clip-path="url(#SVG_CP_1)" fill="#CC97CB" fill-rule="evenodd" stroke="none" d="M86.315,16.73363L86.315,27.73002L86.79452,27.73002
			L86.79452,16.73363L86.315,16.73363z"/>
		<path clip-path="url(#SVG_CP_1)" fill="#CC97CB" fill-rule="evenodd" stroke="none" d="M86.79452,16.73363L86.79452,27.73002
			L87.27405,27.73002L87.27405,16.73363L86.79452,16.73363z"/>
		<path clip-path="url(#SVG_CP_1)" fill="#CC97CC" fill-rule="evenodd" stroke="none" d="M87.27405,16.73363L87.27405,27.73002
			L87.75358,27.73002L87.75358,16.73363L87.27405,16.73363z"/>
		<path clip-path="url(#SVG_CP_1)" fill="#CC97CC" fill-rule="evenodd" stroke="none" d="M87.75358,16.73363L87.75358,27.73002
			L88.23311,27.73002L88.23311,16.73363L87.75358,16.73363z"/>
		<path clip-path="url(#SVG_CP_1)" fill="#CC97CC" fill-rule="evenodd" stroke="none" d="M88.23311,16.73363L88.23311,27.73002
			L88.71263,27.73002L88.71263,16.73363L88.23311,16.73363z"/>
		<path clip-path="url(#SVG_CP_1)" fill="#C995C9" fill-rule="evenodd" stroke="none" d="M88.71263,16.73363L88.71263,27.73002
			L89.19216,27.73002L89.19216,16.73363L88.71263,16.73363z"/>
		<path clip-path="url(#SVG_CP_1)" fill="#C993C9" fill-rule="evenodd" stroke="none" d="M89.19216,16.73363L89.19216,27.73002
			L89.67169,27.73002L89.67169,16.73363L89.19216,16.73363z"/>
		<path clip-path="url(#SVG_CP_1)" fill="#C993C9" fill-rule="evenodd" stroke="none" d="M89.67169,16.73363L89.67169,27.73002
			L90.15122,27.73002L90.15122,16.73363L89.67169,16.73363z"/>
		<path clip-path="url(#SVG_CP_1)" fill="#C993C9" fill-rule="evenodd" stroke="none" d="M90.15122,16.73363L90.15122,27.73002
			L90.63075,27.73002L90.63075,16.73363L90.15122,16.73363z"/>
		<path clip-path="url(#SVG_CP_1)" fill="#C993C9" fill-rule="evenodd" stroke="none" d="M90.63075,16.73363L90.63075,27.73002
			L91.11027,27.73002L91.11027,16.73363L90.63075,16.73363z"/>
		<path clip-path="url(#SVG_CP_1)" fill="#C993C9" fill-rule="evenodd" stroke="none" d="M91.11027,16.73363L91.11027,27.73002
			L91.5898,27.73002L91.5898,16.73363L91.11027,16.73363z"/>
		<path clip-path="url(#SVG_CP_1)" fill="#C991C9" fill-rule="evenodd" stroke="none" d="M91.5898,16.73363L91.5898,27.73002L
			92.06933,27.73002L92.06933,16.73363L91.5898,16.73363z"/>
		<path clip-path="url(#SVG_CP_1)" fill="#C991C9" fill-rule="evenodd" stroke="none" d="M92.06933,16.73363L92.06933,27.73002
			L92.54886,27.73002L92.54886,16.73363L92.06933,16.73363z"/>
		<path clip-path="url(#SVG_CP_1)" fill="#C991C9" fill-rule="evenodd" stroke="none" d="M92.54886,16.73363L92.54886,27.73002
			L93.02838,27.73002L93.02838,16.73363L92.54886,16.73363z"/>
		<path clip-path="url(#SVG_CP_1)" fill="#C78FC7" fill-rule="evenodd" stroke="none" d="M93.02838,16.73363L93.02838,27.73002
			L93.50791,27.73002L93.50791,16.73363L93.02838,16.73363z"/>
		<path clip-path="url(#SVG_CP_1)" fill="#C78FC7" fill-rule="evenodd" stroke="none" d="M93.50791,16.73363L93.50791,27.73002
			L93.98744,27.73002L93.98744,16.73363L93.50791,16.73363z"/>
		<path clip-path="url(#SVG_CP_1)" fill="#C78FC7" fill-rule="evenodd" stroke="none" d="M93.98744,16.73363L93.98744,27.73002
			L94.46697,27.73002L94.46697,16.73363L93.98744,16.73363z"/>
		<path clip-path="url(#SVG_CP_1)" fill="#C78DC7" fill-rule="evenodd" stroke="none" d="M94.46697,16.73363L94.46697,27.73002
			L94.9465,27.73002L94.9465,16.73363L94.46697,16.73363z"/>
		<path clip-path="url(#SVG_CP_1)" fill="#C78DC7" fill-rule="evenodd" stroke="none" d="M94.9465,16.73363L94.9465,27.73002L
			95.42602,27.73002L95.42602,16.73363L94.9465,16.73363z"/>
		<path clip-path="url(#SVG_CP_1)" fill="#C78DC7" fill-rule="evenodd" stroke="none" d="M95.42602,16.73363L95.42602,27.73002
			L95.90555,27.73002L95.90555,16.73363L95.42602,16.73363z"/>
		<path clip-path="url(#SVG_CP_1)" fill="#C78DC7" fill-rule="evenodd" stroke="none" d="M95.90555,16.73363L95.90555,27.73002
			L96.38508,27.73002L96.38508,16.73363L95.90555,16.73363z"/>
		<path clip-path="url(#SVG_CP_1)" fill="#C78DC7" fill-rule="evenodd" stroke="none" d="M96.38508,16.73363L96.38508,27.73002
			L96.86461,27.73002L96.86461,16.73363L96.38508,16.73363z"/>
		<path clip-path="url(#SVG_CP_1)" fill="#C48BC4" fill-rule="evenodd" stroke="none" d="M96.86461,16.73363L96.86461,27.73002
			L97.34413,27.73002L97.34413,16.73363L96.86461,16.73363z"/>
		<path clip-path="url(#SVG_CP_1)" fill="#C489C4" fill-rule="evenodd" stroke="none" d="M97.34413,16.73363L97.34413,27.73002
			L97.82366,27.73002L97.82366,16.73363L97.34413,16.73363z"/>
		<path clip-path="url(#SVG_CP_1)" fill="#C489C4" fill-rule="evenodd" stroke="none" d="M97.82366,16.73363L97.82366,27.73002
			L98.30319,27.73002L98.30319,16.73363L97.82366,16.73363z"/>
		<path clip-path="url(#SVG_CP_1)" fill="#C489C4" fill-rule="evenodd" stroke="none" d="M98.30319,16.73363L98.30319,27.73002
			L98.78272,27.73002L98.78272,16.73363L98.30319,16.73363z"/>
		<path clip-path="url(#SVG_CP_1)" fill="#C489C4" fill-rule="evenodd" stroke="none" d="M98.78272,16.73363L98.78272,27.73002
			L99.26225,27.73002L99.26225,16.73363L98.78272,16.73363z"/>
		<path clip-path="url(#SVG_CP_1)" fill="#C489C4" fill-rule="evenodd" stroke="none" d="M99.26225,16.73363L99.26225,27.73002
			L99.74177,27.73002L99.74177,16.73363L99.26225,16.73363z"/>
		<path clip-path="url(#SVG_CP_1)" fill="#C489C4" fill-rule="evenodd" stroke="none" d="M99.74177,16.73363L99.74177,27.73002
			L100.2213,27.73002L100.2213,16.73363L99.74177,16.73363z"/>
		<path clip-path="url(#SVG_CP_1)" fill="#C487C4" fill-rule="evenodd" stroke="none" d="M100.2213,16.73363L100.2213,27.73002
			L100.70083,27.73002L100.70083,16.73363L100.2213,16.73363z"/>
		<path clip-path="url(#SVG_CP_1)" fill="#C286C2" fill-rule="evenodd" stroke="none" d="M100.70083,16.73363L100.70083,27.73002
			L101.18036,27.73002L101.18036,16.73363L100.70083,16.73363z"/>
		<path clip-path="url(#SVG_CP_1)" fill="#C286C2" fill-rule="evenodd" stroke="none" d="M101.18036,16.73363L101.18036,27.73002
			L101.65988,27.73002L101.65988,16.73363L101.18036,16.73363z"/>
		<path clip-path="url(#SVG_CP_1)" fill="#C286C2" fill-rule="evenodd" stroke="none" d="M101.65988,16.73363L101.65988,27.73002
			L102.13941,27.73002L102.13941,16.73363L101.65988,16.73363z"/>
		<path clip-path="url(#SVG_CP_1)" fill="#C286C2" fill-rule="evenodd" stroke="none" d="M102.13941,16.73363L102.13941,27.73002
			L102.61894,27.73002L102.61894,16.73363L102.13941,16.73363z"/>
		<path clip-path="url(#SVG_CP_1)" fill="#C284C2" fill-rule="evenodd" stroke="none" d="M102.61894,16.73363L102.61894,27.73002
			L103.09847,27.73002L103.09847,16.73363L102.61894,16.73363z"/>
		<path clip-path="url(#SVG_CP_1)" fill="#C284C2" fill-rule="evenodd" stroke="none" d="M103.09847,16.73363L103.09847,27.73002
			L103.57799,27.73002L103.57799,16.73363L103.09847,16.73363z"/>
		<path clip-path="url(#SVG_CP_1)" fill="#C284C2" fill-rule="evenodd" stroke="none" d="M103.57799,16.73363L103.57799,27.73002
			L104.05752,27.73002L104.05752,16.73363L103.57799,16.73363z"/>
		<path clip-path="url(#SVG_CP_1)" fill="#C284C2" fill-rule="evenodd" stroke="none" d="M104.05752,16.73363L104.05752,27.73002
			L104.53705,27.73002L104.53705,16.73363L104.05752,16.73363z"/>
		<path clip-path="url(#SVG_CP_1)" fill="#BF82BF" fill-rule="evenodd" stroke="none" d="M104.53705,16.73363L104.53705,27.73002
			L105.01658,27.73002L105.01658,16.73363L104.53705,16.73363z"/>
		<path clip-path="url(#SVG_CP_1)" fill="#BF82BF" fill-rule="evenodd" stroke="none" d="M105.01658,16.73363L105.01658,27.73002
			L105.49611,27.73002L105.49611,16.73363L105.01658,16.73363z"/>
		<path clip-path="url(#SVG_CP_1)" fill="#BF80BF" fill-rule="evenodd" stroke="none" d="M105.49611,16.73363L105.49611,27.73002
			L105.97563,27.73002L105.97563,16.73363L105.49611,16.73363z"/>
		<path clip-path="url(#SVG_CP_1)" fill="#BF80BF" fill-rule="evenodd" stroke="none" d="M105.97563,16.73363L105.97563,27.73002
			L106.45516,27.73002L106.45516,16.73363L105.97563,16.73363z"/>
		<path clip-path="url(#SVG_CP_1)" fill="#BF80BF" fill-rule="evenodd" stroke="none" d="M106.45516,16.73363L106.45516,27.73002
			L106.93469,27.73002L106.93469,16.73363L106.45516,16.73363z"/>
		<path clip-path="url(#SVG_CP_1)" fill="none" stroke="#000000" stroke-width="0.95906" stroke-miterlimit="10" stroke-linecap="round" stroke-linejoin="round" d="
			M206.19693,27.73002L206.19693,28.68622"/>
		<path clip-path="url(#SVG_CP_1)" fill="#BF80BF" fill-rule="evenodd" stroke="none" d="M106.93469,16.73363L106.93469,27.73002
			L107.41422,27.73002L107.41422,16.73363L106.93469,16.73363z"/>
		<path clip-path="url(#SVG_CP_1)" fill="#BE80BF" fill-rule="evenodd" stroke="none" d="M107.41422,16.73363L107.41422,27.73002
			L107.89374,27.73002L107.89374,16.73363L107.41422,16.73363z"/>
		<path clip-path="url(#SVG_CP_1)" fill="#BE80BF" fill-rule="evenodd" stroke="none" d="M107.89374,16.73363L107.89374,27.73002
			L108.37327,27.73002L108.37327,16.73363L107.89374,16.73363z"/>
		<path clip-path="url(#SVG_CP_1)" fill="#BE80BF" fill-rule="evenodd" stroke="none" d="M108.37327,16.73363L108.37327,27.73002
			L108.8528,27.73002L108.8528,16.73363L108.37327,16.73363z"/>
		<path clip-path="url(#SVG_CP_1)" fill="#BD7EBF" fill-rule="evenodd" stroke="none" d="M108.8528,16.73363L108.8528,27.73002
			L109.33233,27.73002L109.33233,16.73363L108.8528,16.73363z"/>
		<path clip-path="url(#SVG_CP_1)" fill="#BD7EBF" fill-rule="evenodd" stroke="none" d="M109.33233,16.73363L109.33233,27.73002
			L109.81186,27.73002L109.81186,16.73363L109.33233,16.73363z"/>
		<path clip-path="url(#SVG_CP_1)" fill="#BD7EBF" fill-rule="evenodd" stroke="none" d="M109.81186,16.73363L109.81186,27.73002
			L110.29138,27.73002L110.29138,16.73363L109.81186,16.73363z"/>
		<path clip-path="url(#SVG_CP_1)" fill="#BC7CBF" fill-rule="evenodd" stroke="none" d="M110.29138,16.73363L110.29138,27.73002
			L110.77091,27.73002L110.77091,16.73363L110.29138,16.73363z"/>
		<path clip-path="url(#SVG_CP_1)" fill="#BC7CBF" fill-rule="evenodd" stroke="none" d="M110.77091,16.73363L110.77091,27.73002
			L111.25044,27.73002L111.25044,16.73363L110.77091,16.73363z"/>
		<path clip-path="url(#SVG_CP_1)" fill="#BE7EC2" fill-rule="evenodd" stroke="none" d="M111.25044,16.73363L111.25044,27.73002
			L111.72997,27.73002L111.72997,16.73363L111.25044,16.73363z"/>
		<path clip-path="url(#SVG_CP_1)" fill="#BE7CC2" fill-rule="evenodd" stroke="none" d="M111.72997,16.73363L111.72997,27.73002
			L112.20949,27.73002L112.20949,16.73363L111.72997,16.73363z"/>
		<path clip-path="url(#SVG_CP_1)" fill="#BD7CC2" fill-rule="evenodd" stroke="none" d="M112.20949,16.73363L112.20949,27.73002
			L112.68902,27.73002L112.68902,16.73363L112.20949,16.73363z"/>
		<path clip-path="url(#SVG_CP_1)" fill="#BD7CC2" fill-rule="evenodd" stroke="none" d="M112.68902,16.73363L112.68902,27.73002
			L113.16855,27.73002L113.16855,16.73363L112.68902,16.73363z"/>
		<path clip-path="url(#SVG_CP_1)" fill="#BD7AC2" fill-rule="evenodd" stroke="none" d="M113.16855,16.73363L113.16855,27.73002
			L113.64808,27.73002L113.64808,16.73363L113.16855,16.73363z"/>
		<path clip-path="url(#SVG_CP_1)" fill="#BC7AC2" fill-rule="evenodd" stroke="none" d="M113.64808,16.73363L113.64808,27.73002
			L114.12761,27.73002L114.12761,16.73363L113.64808,16.73363z"/>
		<path clip-path="url(#SVG_CP_1)" fill="#BC7AC2" fill-rule="evenodd" stroke="none" d="M114.12761,16.73363L114.12761,27.73002
			L114.60713,27.73002L114.60713,16.73363L114.12761,16.73363z"/>
		<path clip-path="url(#SVG_CP_1)" fill="#BC78C2" fill-rule="evenodd" stroke="none" d="M114.60713,16.73363L114.60713,27.73002
			L115.08666,27.73002L115.08666,16.73363L114.60713,16.73363z"/>
		<path clip-path="url(#SVG_CP_1)" fill="#BE7AC4" fill-rule="evenodd" stroke="none" d="M115.08666,16.73363L115.08666,27.73002
			L115.56619,27.73002L115.56619,16.73363L115.08666,16.73363z"/>
		<path clip-path="url(#SVG_CP_1)" fill="#BD7AC4" fill-rule="evenodd" stroke="none" d="M115.56619,16.73363L115.56619,27.73002
			L116.04572,27.73002L116.04572,16.73363L115.56619,16.73363z"/>
		<path clip-path="url(#SVG_CP_1)" fill="#BD78C4" fill-rule="evenodd" stroke="none" d="M116.04572,16.73363L116.04572,27.73002
			L116.52524,27.73002L116.52524,16.73363L116.04572,16.73363z"/>
		<path clip-path="url(#SVG_CP_1)" fill="#BD78C4" fill-rule="evenodd" stroke="none" d="M116.52524,16.73363L116.52524,27.73002
			L117.00477,27.73002L117.00477,16.73363L116.52524,16.73363z"/>
		<path clip-path="url(#SVG_CP_1)" fill="#BB78C4" fill-rule="evenodd" stroke="none" d="M117.00477,16.73363L117.00477,27.73002
			L117.4843,27.73002L117.4843,16.73363L117.00477,16.73363z"/>
		<path clip-path="url(#SVG_CP_1)" fill="#BB76C4" fill-rule="evenodd" stroke="none" d="M117.4843,16.73363L117.4843,27.73002
			L117.96383,27.73002L117.96383,16.73363L117.4843,16.73363z"/>
		<path clip-path="url(#SVG_CP_1)" fill="#BB76C4" fill-rule="evenodd" stroke="none" d="M117.96383,16.73363L117.96383,27.73002
			L118.44336,27.73002L118.44336,16.73363L117.96383,16.73363z"/>
		<path clip-path="url(#SVG_CP_1)" fill="#BB76C4" fill-rule="evenodd" stroke="none" d="M118.44336,16.73363L118.44336,27.73002
			L118.92288,27.73002L118.92288,16.73363L118.44336,16.73363z"/>
		<path clip-path="url(#SVG_CP_1)" fill="#BC75C7" fill-rule="evenodd" stroke="none" d="M118.92288,16.73363L118.92288,27.73002
			L119.40241,27.73002L119.40241,16.73363L118.92288,16.73363z"/>
		<path clip-path="url(#SVG_CP_1)" fill="#BC75C7" fill-rule="evenodd" stroke="none" d="M119.40241,16.73363L119.40241,27.73002
			L119.88194,27.73002L119.88194,16.73363L119.40241,16.73363z"/>
		<path clip-path="url(#SVG_CP_1)" fill="#BC75C7" fill-rule="evenodd" stroke="none" d="M119.88194,16.73363L119.88194,27.73002
			L120.36147,27.73002L120.36147,16.73363L119.88194,16.73363z"/>
		<path clip-path="url(#SVG_CP_1)" fill="#BA73C7" fill-rule="evenodd" stroke="none" d="M120.36147,16.73363L120.36147,27.73002
			L120.84099,27.73002L120.84099,16.73363L120.36147,16.73363z"/>
		<path clip-path="url(#SVG_CP_1)" fill="#BA73C7" fill-rule="evenodd" stroke="none" d="M120.84099,16.73363L120.84099,27.73002
			L121.32052,27.73002L121.32052,16.73363L120.84099,16.73363z"/>
		<path clip-path="url(#SVG_CP_1)" fill="#BA73C7" fill-rule="evenodd" stroke="none" d="M121.32052,16.73363L121.32052,27.73002
			L121.80005,27.73002L121.80005,16.73363L121.32052,16.73363z"/>
		<path clip-path="url(#SVG_CP_1)" fill="#BA71C7" fill-rule="evenodd" stroke="none" d="M121.80005,16.73363L121.80005,27.73002
			L122.27958,27.73002L122.27958,16.73363L121.80005,16.73363z"/>
		<path clip-path="url(#SVG_CP_1)" fill="#B971C7" fill-rule="evenodd" stroke="none" d="M122.27958,16.73363L122.27958,27.73002
			L122.7591,27.73002L122.7591,16.73363L122.27958,16.73363z"/>
		<path clip-path="url(#SVG_CP_1)" fill="#B971C7" fill-rule="evenodd" stroke="none" d="M122.7591,16.73363L122.7591,27.73002
			L123.23863,27.73002L123.23863,16.73363L122.7591,16.73363z"/>
		<path clip-path="url(#SVG_CP_1)" fill="#BB71C9" fill-rule="evenodd" stroke="none" d="M123.23863,16.73363L123.23863,27.73002
			L123.71816,27.73002L123.71816,16.73363L123.23863,16.73363z"/>
		<path clip-path="url(#SVG_CP_1)" fill="#B971C9" fill-rule="evenodd" stroke="none" d="M123.71816,16.73363L123.71816,27.73002
			L124.19769,27.73002L124.19769,16.73363L123.71816,16.73363z"/>
		<path clip-path="url(#SVG_CP_1)" fill="#B971C9" fill-rule="evenodd" stroke="none" d="M124.19769,16.73363L124.19769,27.73002
			L124.67722,27.73002L124.67722,16.73363L124.19769,16.73363z"/>
		<path clip-path="url(#SVG_CP_1)" fill="#B971C9" fill-rule="evenodd" stroke="none" d="M124.67722,16.73363L124.67722,27.73002
			L125.15674,27.73002L125.15674,16.73363L124.67722,16.73363z"/>
		<path clip-path="url(#SVG_CP_1)" fill="#B76FC9" fill-rule="evenodd" stroke="none" d="M125.15674,16.73363L125.15674,27.73002
			L125.63627,27.73002L125.63627,16.73363L125.15674,16.73363z"/>
		<path clip-path="url(#SVG_CP_1)" fill="#B76FC9" fill-rule="evenodd" stroke="none" d="M125.63627,16.73363L125.63627,27.73002
			L126.1158,27.73002L126.1158,16.73363L125.63627,16.73363z"/>
		<path clip-path="url(#SVG_CP_1)" fill="#B76FC9" fill-rule="evenodd" stroke="none" d="M126.1158,16.73363L126.1158,27.73002
			L126.59533,27.73002L126.59533,16.73363L126.1158,16.73363z"/>
		<path clip-path="url(#SVG_CP_1)" fill="#B76DC9" fill-rule="evenodd" stroke="none" d="M126.59533,16.73363L126.59533,27.73002
			L127.07485,27.73002L127.07485,16.73363L126.59533,16.73363z"/>
		<path clip-path="url(#SVG_CP_1)" fill="#B86ECC" fill-rule="evenodd" stroke="none" d="M127.07485,16.73363L127.07485,27.73002
			L127.55438,27.73002L127.55438,16.73363L127.07485,16.73363z"/>
		<path clip-path="url(#SVG_CP_1)" fill="#B86ECC" fill-rule="evenodd" stroke="none" d="M127.55438,16.73363L127.55438,27.73002
			L128.03391,27.73002L128.03391,16.73363L127.55438,16.73363z"/>
		<path clip-path="url(#SVG_CP_1)" fill="#B76CCC" fill-rule="evenodd" stroke="none" d="M128.03391,16.73363L128.03391,27.73002
			L128.51344,27.73002L128.51344,16.73363L128.03391,16.73363z"/>
		<path clip-path="url(#SVG_CP_1)" fill="#B66CCC" fill-rule="evenodd" stroke="none" d="M128.51344,16.73363L128.51344,27.73002
			L128.99297,27.73002L128.99297,16.73363L128.51344,16.73363z"/>
		<path clip-path="url(#SVG_CP_1)" fill="#B66CCC" fill-rule="evenodd" stroke="none" d="M128.99297,16.73363L128.99297,27.73002
			L129.47249,27.73002L129.47249,16.73363L128.99297,16.73363z"/>
		<path clip-path="url(#SVG_CP_1)" fill="#B56ACC" fill-rule="evenodd" stroke="none" d="M129.47249,16.73363L129.47249,27.73002
			L129.95202,27.73002L129.95202,16.73363L129.47249,16.73363z"/>
		<path clip-path="url(#SVG_CP_1)" fill="#B56ACC" fill-rule="evenodd" stroke="none" d="M129.95202,16.73363L129.95202,27.73002
			L130.43155,27.73002L130.43155,16.73363L129.95202,16.73363z"/>
		<path clip-path="url(#SVG_CP_1)" fill="#B46ACC" fill-rule="evenodd" stroke="none" d="M130.43155,16.73363L130.43155,27.73002
			L130.91108,27.73002L130.91108,16.73363L130.43155,16.73363z"/>
		<path clip-path="url(#SVG_CP_1)" fill="#B569CF" fill-rule="evenodd" stroke="none" d="M130.91108,16.73363L130.91108,27.73002
			L131.3906,27.73002L131.3906,16.73363L130.91108,16.73363z"/>
		<path clip-path="url(#SVG_CP_1)" fill="#B569CF" fill-rule="evenodd" stroke="none" d="M131.3906,16.73363L131.3906,27.73002
			L131.87013,27.73002L131.87013,16.73363L131.3906,16.73363z"/>
		<path clip-path="url(#SVG_CP_1)" fill="#B469CF" fill-rule="evenodd" stroke="none" d="M131.87013,16.73363L131.87013,27.73002
			L132.34966,27.73002L132.34966,16.73363L131.87013,16.73363z"/>
		<path clip-path="url(#SVG_CP_1)" fill="#B367CF" fill-rule="evenodd" stroke="none" d="M132.34966,16.73363L132.34966,27.73002
			L132.82919,27.73002L132.82919,16.73363L132.34966,16.73363z"/>
		<path clip-path="url(#SVG_CP_1)" fill="#B367CF" fill-rule="evenodd" stroke="none" d="M132.82919,16.73363L132.82919,27.73002
			L133.30872,27.73002L133.30872,16.73363L132.82919,16.73363z"/>
		<path clip-path="url(#SVG_CP_1)" fill="#B367CF" fill-rule="evenodd" stroke="none" d="M133.30872,16.73363L133.30872,27.73002
			L133.78824,27.73002L133.78824,16.73363L133.30872,16.73363z"/>
		<path clip-path="url(#SVG_CP_1)" fill="#B165CF" fill-rule="evenodd" stroke="none" d="M133.78824,16.73363L133.78824,27.73002
			L134.26777,27.73002L134.26777,16.73363L133.78824,16.73363z"/>
		<path clip-path="url(#SVG_CP_1)" fill="#B165CF" fill-rule="evenodd" stroke="none" d="M134.26777,16.73363L134.26777,27.73002
			L134.7473,27.73002L134.7473,16.73363L134.26777,16.73363z"/>
		<path clip-path="url(#SVG_CP_1)" fill="#B366D1" fill-rule="evenodd" stroke="none" d="M134.7473,16.73363L134.7473,27.73002
			L135.22683,27.73002L135.22683,16.73363L134.7473,16.73363z"/>
		<path clip-path="url(#SVG_CP_1)" fill="#B064D1" fill-rule="evenodd" stroke="none" d="M135.22683,16.73363L135.22683,27.73002
			L135.70635,27.73002L135.70635,16.73363L135.22683,16.73363z"/>
		<path clip-path="url(#SVG_CP_1)" fill="#B064D1" fill-rule="evenodd" stroke="none" d="M135.70635,16.73363L135.70635,27.73002
			L136.18588,27.73002L136.18588,16.73363L135.70635,16.73363z"/>
		<path clip-path="url(#SVG_CP_1)" fill="#B064D1" fill-rule="evenodd" stroke="none" d="M136.18588,16.73363L136.18588,27.73002
			L136.66541,27.73002L136.66541,16.73363L136.18588,16.73363z"/>
		<path clip-path="url(#SVG_CP_1)" fill="#B062D1" fill-rule="evenodd" stroke="none" d="M136.66541,16.73363L136.66541,27.73002
			L137.14494,27.73002L137.14494,16.73363L136.66541,16.73363z"/>
		<path clip-path="url(#SVG_CP_1)" fill="#AE62D1" fill-rule="evenodd" stroke="none" d="M137.14494,16.73363L137.14494,27.73002
			L137.62447,27.73002L137.62447,16.73363L137.14494,16.73363z"/>
		<path clip-path="url(#SVG_CP_1)" fill="#AE62D1" fill-rule="evenodd" stroke="none" d="M137.62447,16.73363L137.62447,27.73002
			L138.10399,27.73002L138.10399,16.73363L137.62447,16.73363z"/>
		<path clip-path="url(#SVG_CP_1)" fill="#AD60D1" fill-rule="evenodd" stroke="none" d="M138.10399,16.73363L138.10399,27.73002
			L138.58352,27.73002L138.58352,16.73363L138.10399,16.73363z"/>
		<path clip-path="url(#SVG_CP_1)" fill="#AB60D1" fill-rule="evenodd" stroke="none" d="M138.58352,16.73363L138.58352,27.73002
			L139.06305,27.73002L139.06305,16.73363L138.58352,16.73363z"/>
		<path clip-path="url(#SVG_CP_1)" fill="#AE61D4" fill-rule="evenodd" stroke="none" d="M139.06305,16.73363L139.06305,27.73002
			L139.54258,27.73002L139.54258,16.73363L139.06305,16.73363z"/>
		<path clip-path="url(#SVG_CP_1)" fill="#AD5FD4" fill-rule="evenodd" stroke="none" d="M139.54258,16.73363L139.54258,27.73002
			L140.0221,27.73002L140.0221,16.73363L139.54258,16.73363z"/>
		<path clip-path="url(#SVG_CP_1)" fill="#AD5FD4" fill-rule="evenodd" stroke="none" d="M140.0221,16.73363L140.0221,27.73002
			L140.50163,27.73002L140.50163,16.73363L140.0221,16.73363z"/>
		<path clip-path="url(#SVG_CP_1)" fill="#AB5FD4" fill-rule="evenodd" stroke="none" d="M140.50163,16.73363L140.50163,27.73002
			L140.98116,27.73002L140.98116,16.73363L140.50163,16.73363z"/>
		<path clip-path="url(#SVG_CP_1)" fill="#AB5FD4" fill-rule="evenodd" stroke="none" d="M140.98116,16.73363L140.98116,27.73002
			L141.46069,27.73002L141.46069,16.73363L140.98116,16.73363z"/>
		<path clip-path="url(#SVG_CP_1)" fill="#AA5DD4" fill-rule="evenodd" stroke="none" d="M141.46069,16.73363L141.46069,27.73002
			L141.94021,27.73002L141.94021,16.73363L141.46069,16.73363z"/>
		<path clip-path="url(#SVG_CP_1)" fill="#A85DD4" fill-rule="evenodd" stroke="none" d="M141.94021,16.73363L141.94021,27.73002
			L142.41974,27.73002L142.41974,16.73363L141.94021,16.73363z"/>
		<path clip-path="url(#SVG_CP_1)" fill="#A85DD4" fill-rule="evenodd" stroke="none" d="M142.41974,16.73363L142.41974,27.73002
			L142.89927,27.73002L142.89927,16.73363L142.41974,16.73363z"/>
		<path clip-path="url(#SVG_CP_1)" fill="#A95CD6" fill-rule="evenodd" stroke="none" d="M142.89927,16.73363L142.89927,27.73002
			L143.3788,27.73002L143.3788,16.73363L142.89927,16.73363z"/>
		<path clip-path="url(#SVG_CP_1)" fill="#A75CD6" fill-rule="evenodd" stroke="none" d="M143.3788,16.73363L143.3788,27.73002
			L143.85833,27.73002L143.85833,16.73363L143.3788,16.73363z"/>
		<path clip-path="url(#SVG_CP_1)" fill="#A75CD6" fill-rule="evenodd" stroke="none" d="M143.85833,16.73363L143.85833,27.73002
			L144.33785,27.73002L144.33785,16.73363L143.85833,16.73363z"/>
		<path clip-path="url(#SVG_CP_1)" fill="#A75AD6" fill-rule="evenodd" stroke="none" d="M144.33785,16.73363L144.33785,27.73002
			L144.81738,27.73002L144.81738,16.73363L144.33785,16.73363z"/>
		<path clip-path="url(#SVG_CP_1)" fill="#A75AD6" fill-rule="evenodd" stroke="none" d="M144.81738,16.73363L144.81738,27.73002
			L145.29691,27.73002L145.29691,16.73363L144.81738,16.73363z"/>
		<path clip-path="url(#SVG_CP_1)" fill="#A55AD6" fill-rule="evenodd" stroke="none" d="M145.29691,16.73363L145.29691,27.73002
			L145.77644,27.73002L145.77644,16.73363L145.29691,16.73363z"/>
		<path clip-path="url(#SVG_CP_1)" fill="#A458D6" fill-rule="evenodd" stroke="none" d="M145.77644,16.73363L145.77644,27.73002
			L146.25596,27.73002L146.25596,16.73363L145.77644,16.73363z"/>
		<path clip-path="url(#SVG_CP_1)" fill="#A458D6" fill-rule="evenodd" stroke="none" d="M146.25596,16.73363L146.25596,27.73002
			L146.73549,27.73002L146.73549,16.73363L146.25596,16.73363z"/>
		<path clip-path="url(#SVG_CP_1)" fill="#A359D9" fill-rule="evenodd" stroke="none" d="M146.73549,16.73363L146.73549,27.73002
			L147.21502,27.73002L147.21502,16.73363L146.73549,16.73363z"/>
		<path clip-path="url(#SVG_CP_1)" fill="#A357D9" fill-rule="evenodd" stroke="none" d="M147.21502,16.73363L147.21502,27.73002
			L147.69455,27.73002L147.69455,16.73363L147.21502,16.73363z"/>
		<path clip-path="url(#SVG_CP_1)" fill="#A357D9" fill-rule="evenodd" stroke="none" d="M147.69455,16.73363L147.69455,27.73002
			L148.17408,27.73002L148.17408,16.73363L147.69455,16.73363z"/>
		<path clip-path="url(#SVG_CP_1)" fill="#A357D9" fill-rule="evenodd" stroke="none" d="M148.17408,16.73363L148.17408,27.73002
			L148.6536,27.73002L148.6536,16.73363L148.17408,16.73363z"/>
		<path clip-path="url(#SVG_CP_1)" fill="#9F55D9" fill-rule="evenodd" stroke="none" d="M148.6536,16.73363L148.6536,27.73002
			L149.13313,27.73002L149.13313,16.73363L148.6536,16.73363z"/>
		<path clip-path="url(#SVG_CP_1)" fill="#9F55D9" fill-rule="evenodd" stroke="none" d="M149.13313,16.73363L149.13313,27.73002
			L149.61266,27.73002L149.61266,16.73363L149.13313,16.73363z"/>
		<path clip-path="url(#SVG_CP_1)" fill="#9F55D9" fill-rule="evenodd" stroke="none" d="M149.61266,16.73363L149.61266,27.73002
			L150.09219,27.73002L150.09219,16.73363L149.61266,16.73363z"/>
		<path clip-path="url(#SVG_CP_1)" fill="#9C52D9" fill-rule="evenodd" stroke="none" d="M150.09219,16.73363L150.09219,27.73002
			L150.57171,27.73002L150.57171,16.73363L150.09219,16.73363z"/>
		<path clip-path="url(#SVG_CP_1)" fill="#9C52D9" fill-rule="evenodd" stroke="none" d="M150.57171,16.73363L150.57171,27.73002
			L151.05124,27.73002L151.05124,16.73363L150.57171,16.73363z"/>
		<path clip-path="url(#SVG_CP_1)" fill="#9E53DB" fill-rule="evenodd" stroke="none" d="M151.05124,16.73363L151.05124,27.73002
			L151.53077,27.73002L151.53077,16.73363L151.05124,16.73363z"/>
		<path clip-path="url(#SVG_CP_1)" fill="#9D51DB" fill-rule="evenodd" stroke="none" d="M151.53077,16.73363L151.53077,27.73002
			L152.0103,27.73002L152.0103,16.73363L151.53077,16.73363z"/>
		<path clip-path="url(#SVG_CP_1)" fill="#9B51DB" fill-rule="evenodd" stroke="none" d="M152.0103,16.73363L152.0103,27.73002
			L152.48983,27.73002L152.48983,16.73363L152.0103,16.73363z"/>
		<path clip-path="url(#SVG_CP_1)" fill="#9B51DB" fill-rule="evenodd" stroke="none" d="M152.48983,16.73363L152.48983,27.73002
			L152.96935,27.73002L152.96935,16.73363L152.48983,16.73363z"/>
		<path clip-path="url(#SVG_CP_1)" fill="#9A4FDB" fill-rule="evenodd" stroke="none" d="M152.96935,16.73363L152.96935,27.73002
			L153.44888,27.73002L153.44888,16.73363L152.96935,16.73363z"/>
		<path clip-path="url(#SVG_CP_1)" fill="#974FDB" fill-rule="evenodd" stroke="none" d="M153.44888,16.73363L153.44888,27.73002
			L153.92841,27.73002L153.92841,16.73363L153.44888,16.73363z"/>
		<path clip-path="url(#SVG_CP_1)" fill="#974FDB" fill-rule="evenodd" stroke="none" d="M153.92841,16.73363L153.92841,27.73002
			L154.40794,27.73002L154.40794,16.73363L153.92841,16.73363z"/>
		<path clip-path="url(#SVG_CP_1)" fill="#964DDB" fill-rule="evenodd" stroke="none" d="M154.40794,16.73363L154.40794,27.73002
			L154.88746,27.73002L154.88746,16.73363L154.40794,16.73363z"/>
		<path clip-path="url(#SVG_CP_1)" fill="#984EDE" fill-rule="evenodd" stroke="none" d="M154.88746,16.73363L154.88746,27.73002
			L155.36699,27.73002L155.36699,16.73363L154.88746,16.73363z"/>
		<path clip-path="url(#SVG_CP_1)" fill="#964EDE" fill-rule="evenodd" stroke="none" d="M155.36699,16.73363L155.36699,27.73002
			L155.84652,27.73002L155.84652,16.73363L155.36699,16.73363z"/>
		<path clip-path="url(#SVG_CP_1)" fill="#954BDE" fill-rule="evenodd" stroke="none" d="M155.84652,16.73363L155.84652,27.73002
			L156.32605,27.73002L156.32605,16.73363L155.84652,16.73363z"/>
		<path clip-path="url(#SVG_CP_1)" fill="#954BDE" fill-rule="evenodd" stroke="none" d="M156.32605,16.73363L156.32605,27.73002
			L156.80558,27.73002L156.80558,16.73363L156.32605,16.73363z"/>
		<path clip-path="url(#SVG_CP_1)" fill="#924BDE" fill-rule="evenodd" stroke="none" d="M156.80558,16.73363L156.80558,27.73002
			L157.2851,27.73002L157.2851,16.73363L156.80558,16.73363z"/>
		<path clip-path="url(#SVG_CP_1)" fill="#924BDE" fill-rule="evenodd" stroke="none" d="M157.2851,16.73363L157.2851,27.73002
			L157.76463,27.73002L157.76463,16.73363L157.2851,16.73363z"/>
		<path clip-path="url(#SVG_CP_1)" fill="#9149DE" fill-rule="evenodd" stroke="none" d="M157.76463,16.73363L157.76463,27.73002
			L158.24416,27.73002L158.24416,16.73363L157.76463,16.73363z"/>
		<path clip-path="url(#SVG_CP_1)" fill="#8F49DE" fill-rule="evenodd" stroke="none" d="M158.24416,16.73363L158.24416,27.73002
			L158.72369,27.73002L158.72369,16.73363L158.24416,16.73363z"/>
		<path clip-path="url(#SVG_CP_1)" fill="#904AE0" fill-rule="evenodd" stroke="none" d="M158.72369,16.73363L158.72369,27.73002
			L159.20321,27.73002L159.20321,16.73363L158.72369,16.73363z"/>
		<path clip-path="url(#SVG_CP_1)" fill="#8F48E0" fill-rule="evenodd" stroke="none" d="M159.20321,16.73363L159.20321,27.73002
			L159.68274,27.73002L159.68274,16.73363L159.20321,16.73363z"/>
		<path clip-path="url(#SVG_CP_1)" fill="#8F48E0" fill-rule="evenodd" stroke="none" d="M159.68274,16.73363L159.68274,27.73002
			L160.16227,27.73002L160.16227,16.73363L159.68274,16.73363z"/>
		<path clip-path="url(#SVG_CP_1)" fill="#8C48E0" fill-rule="evenodd" stroke="none" d="M160.16227,16.73363L160.16227,27.73002
			L160.6418,27.73002L160.6418,16.73363L160.16227,16.73363z"/>
		<path clip-path="url(#SVG_CP_1)" fill="#8B46E0" fill-rule="evenodd" stroke="none" d="M160.6418,16.73363L160.6418,27.73002
			L161.12132,27.73002L161.12132,16.73363L160.6418,16.73363z"/>
		<path clip-path="url(#SVG_CP_1)" fill="#8B46E0" fill-rule="evenodd" stroke="none" d="M161.12132,16.73363L161.12132,27.73002
			L161.60085,27.73002L161.60085,16.73363L161.12132,16.73363z"/>
		<path clip-path="url(#SVG_CP_1)" fill="#8946E0" fill-rule="evenodd" stroke="none" d="M161.60085,16.73363L161.60085,27.73002
			L162.08038,27.73002L162.08038,16.73363L161.60085,16.73363z"/>
		<path clip-path="url(#SVG_CP_1)" fill="#8743E0" fill-rule="evenodd" stroke="none" d="M162.08038,16.73363L162.08038,27.73002
			L162.55991,27.73002L162.55991,16.73363L162.08038,16.73363z"/>
		<path clip-path="url(#SVG_CP_1)" fill="#8944E3" fill-rule="evenodd" stroke="none" d="M162.55991,16.73363L162.55991,27.73002
			L163.03944,27.73002L163.03944,16.73363L162.55991,16.73363z"/>
		<path clip-path="url(#SVG_CP_1)" fill="#8944E3" fill-rule="evenodd" stroke="none" d="M163.03944,16.73363L163.03944,27.73002
			L163.51896,27.73002L163.51896,16.73363L163.03944,16.73363z"/>
		<path clip-path="url(#SVG_CP_1)" fill="#8542E3" fill-rule="evenodd" stroke="none" d="M163.51896,16.73363L163.51896,27.73002
			L163.99849,27.73002L163.99849,16.73363L163.51896,16.73363z"/>
		<path clip-path="url(#SVG_CP_1)" fill="#8542E3" fill-rule="evenodd" stroke="none" d="M163.99849,16.73363L163.99849,27.73002
			L164.47802,27.73002L164.47802,16.73363L163.99849,16.73363z"/>
		<path clip-path="url(#SVG_CP_1)" fill="#8542E3" fill-rule="evenodd" stroke="none" d="M164.47802,16.73363L164.47802,27.73002
			L164.95755,27.73002L164.95755,16.73363L164.47802,16.73363z"/>
		<path clip-path="url(#SVG_CP_1)" fill="#8140E3" fill-rule="evenodd" stroke="none" d="M164.95755,16.73363L164.95755,27.73002
			L165.43707,27.73002L165.43707,16.73363L164.95755,16.73363z"/>
		<path clip-path="url(#SVG_CP_1)" fill="#8140E3" fill-rule="evenodd" stroke="none" d="M165.43707,16.73363L165.43707,27.73002
			L165.9166,27.73002L165.9166,16.73363L165.43707,16.73363z"/>
		<path clip-path="url(#SVG_CP_1)" fill="#8140E3" fill-rule="evenodd" stroke="none" d="M165.9166,16.73363L165.9166,27.73002
			L166.39613,27.73002L166.39613,16.73363L165.9166,16.73363z"/>
		<path clip-path="url(#SVG_CP_1)" fill="#803DE3" fill-rule="evenodd" stroke="none" d="M166.39613,16.73363L166.39613,27.73002
			L166.87566,27.73002L166.87566,16.73363L166.39613,16.73363z"/>
		<path clip-path="url(#SVG_CP_1)" fill="#7E3EE6" fill-rule="evenodd" stroke="none" d="M166.87566,16.73363L166.87566,27.73002
			L167.35519,27.73002L167.35519,16.73363L166.87566,16.73363z"/>
		<path clip-path="url(#SVG_CP_1)" fill="#7E3EE6" fill-rule="evenodd" stroke="none" d="M167.35519,16.73363L167.35519,27.73002
			L167.83471,27.73002L167.83471,16.73363L167.35519,16.73363z"/>
		<path clip-path="url(#SVG_CP_1)" fill="#7D3CE6" fill-rule="evenodd" stroke="none" d="M167.83471,16.73363L167.83471,27.73002
			L168.31424,27.73002L168.31424,16.73363L167.83471,16.73363z"/>
		<path clip-path="url(#SVG_CP_1)" fill="#7A3CE6" fill-rule="evenodd" stroke="none" d="M168.31424,16.73363L168.31424,27.73002
			L168.79377,27.73002L168.79377,16.73363L168.31424,16.73363z"/>
		<path clip-path="url(#SVG_CP_1)" fill="#7A3CE6" fill-rule="evenodd" stroke="none" d="M168.79377,16.73363L168.79377,27.73002
			L169.2733,27.73002L169.2733,16.73363L168.79377,16.73363z"/>
		<path clip-path="url(#SVG_CP_1)" fill="#7839E6" fill-rule="evenodd" stroke="none" d="M169.2733,16.73363L169.2733,27.73002
			L169.75282,27.73002L169.75282,16.73363L169.2733,16.73363z"/>
		<path clip-path="url(#SVG_CP_1)" fill="#7839E6" fill-rule="evenodd" stroke="none" d="M169.75282,16.73363L169.75282,27.73002
			L170.23235,27.73002L170.23235,16.73363L169.75282,16.73363z"/>
		<path clip-path="url(#SVG_CP_1)" fill="#7639E6" fill-rule="evenodd" stroke="none" d="M170.23235,16.73363L170.23235,27.73002
			L170.71188,27.73002L170.71188,16.73363L170.23235,16.73363z"/>
		<path clip-path="url(#SVG_CP_1)" fill="#7538E8" fill-rule="evenodd" stroke="none" d="M170.71188,16.73363L170.71188,27.73002
			L171.19141,27.73002L171.19141,16.73363L170.71188,16.73363z"/>
		<path clip-path="url(#SVG_CP_1)" fill="#7538E8" fill-rule="evenodd" stroke="none" d="M171.19141,16.73363L171.19141,27.73002
			L171.67094,27.73002L171.67094,16.73363L171.19141,16.73363z"/>
		<path clip-path="url(#SVG_CP_1)" fill="#7238E8" fill-rule="evenodd" stroke="none" d="M171.67094,16.73363L171.67094,27.73002
			L172.15046,27.73002L172.15046,16.73363L171.67094,16.73363z"/>
		<path clip-path="url(#SVG_CP_1)" fill="#7135E8" fill-rule="evenodd" stroke="none" d="M172.15046,16.73363L172.15046,27.73002
			L172.62999,27.73002L172.62999,16.73363L172.15046,16.73363z"/>
		<path clip-path="url(#SVG_CP_1)" fill="#7135E8" fill-rule="evenodd" stroke="none" d="M172.62999,16.73363L172.62999,27.73002
			L173.10952,27.73002L173.10952,16.73363L172.62999,16.73363z"/>
		<path clip-path="url(#SVG_CP_1)" fill="#7135E8" fill-rule="evenodd" stroke="none" d="M173.10952,16.73363L173.10952,27.73002
			L173.58905,27.73002L173.58905,16.73363L173.10952,16.73363z"/>
		<path clip-path="url(#SVG_CP_1)" fill="#6E35E8" fill-rule="evenodd" stroke="none" d="M173.58905,16.73363L173.58905,27.73002
			L174.06857,27.73002L174.06857,16.73363L173.58905,16.73363z"/>
		<path clip-path="url(#SVG_CP_1)" fill="#6C33E8" fill-rule="evenodd" stroke="none" d="M174.06857,16.73363L174.06857,27.73002
			L174.5481,27.73002L174.5481,16.73363L174.06857,16.73363z"/>
		<path clip-path="url(#SVG_CP_1)" fill="#6E34EB" fill-rule="evenodd" stroke="none" d="M174.5481,16.73363L174.5481,27.73002
			L175.02763,27.73002L175.02763,16.73363L174.5481,16.73363z"/>
		<path clip-path="url(#SVG_CP_1)" fill="#6B34EB" fill-rule="evenodd" stroke="none" d="M175.02763,16.73363L175.02763,27.73002
			L175.50716,27.73002L175.50716,16.73363L175.02763,16.73363z"/>
		<path clip-path="url(#SVG_CP_1)" fill="#6931EB" fill-rule="evenodd" stroke="none" d="M175.50716,16.73363L175.50716,27.73002
			L175.98669,27.73002L175.98669,16.73363L175.50716,16.73363z"/>
		<path clip-path="url(#SVG_CP_1)" fill="#6931EB" fill-rule="evenodd" stroke="none" d="M175.98669,16.73363L175.98669,27.73002
			L176.46621,27.73002L176.46621,16.73363L175.98669,16.73363z"/>
		<path clip-path="url(#SVG_CP_1)" fill="#6631EB" fill-rule="evenodd" stroke="none" d="M176.46621,16.73363L176.46621,27.73002
			L176.94574,27.73002L176.94574,16.73363L176.46621,16.73363z"/>
		<path clip-path="url(#SVG_CP_1)" fill="#642FEB" fill-rule="evenodd" stroke="none" d="M176.94574,16.73363L176.94574,27.73002
			L177.42527,27.73002L177.42527,16.73363L176.94574,16.73363z"/>
		<path clip-path="url(#SVG_CP_1)" fill="#642FEB" fill-rule="evenodd" stroke="none" d="M177.42527,16.73363L177.42527,27.73002
			L177.9048,27.73002L177.9048,16.73363L177.42527,16.73363z"/>
		<path clip-path="url(#SVG_CP_1)" fill="#642FEB" fill-rule="evenodd" stroke="none" d="M177.9048,16.73363L177.9048,27.73002
			L178.38432,27.73002L178.38432,16.73363L177.9048,16.73363z"/>
		<path clip-path="url(#SVG_CP_1)" fill="#5F2DEB" fill-rule="evenodd" stroke="none" d="M178.38432,16.73363L178.38432,27.73002
			L178.86385,27.73002L178.86385,16.73363L178.38432,16.73363z"/>
		<path clip-path="url(#SVG_CP_1)" fill="#602DED" fill-rule="evenodd" stroke="none" d="M178.86385,16.73363L178.86385,27.73002
			L179.34338,27.73002L179.34338,16.73363L178.86385,16.73363z"/>
		<path clip-path="url(#SVG_CP_1)" fill="#602DED" fill-rule="evenodd" stroke="none" d="M179.34338,16.73363L179.34338,27.73002
			L179.82291,27.73002L179.82291,16.73363L179.34338,16.73363z"/>
		<path clip-path="url(#SVG_CP_1)" fill="#5B2BED" fill-rule="evenodd" stroke="none" d="M179.82291,16.73363L179.82291,27.73002
			L180.30244,27.73002L180.30244,16.73363L179.82291,16.73363z"/>
		<path clip-path="url(#SVG_CP_1)" fill="#5B2BED" fill-rule="evenodd" stroke="none" d="M180.30244,16.73363L180.30244,27.73002
			L180.78196,27.73002L180.78196,16.73363L180.30244,16.73363z"/>
		<path clip-path="url(#SVG_CP_1)" fill="#5B2BED" fill-rule="evenodd" stroke="none" d="M180.78196,16.73363L180.78196,27.73002
			L181.26149,27.73002L181.26149,16.73363L180.78196,16.73363z"/>
		<path clip-path="url(#SVG_CP_1)" fill="#5A28ED" fill-rule="evenodd" stroke="none" d="M181.26149,16.73363L181.26149,27.73002
			L181.74102,27.73002L181.74102,16.73363L181.26149,16.73363z"/>
		<path clip-path="url(#SVG_CP_1)" fill="#5628ED" fill-rule="evenodd" stroke="none" d="M181.74102,16.73363L181.74102,27.73002
			L182.22055,27.73002L182.22055,16.73363L181.74102,16.73363z"/>
		<path clip-path="url(#SVG_CP_1)" fill="#5628ED" fill-rule="evenodd" stroke="none" d="M182.22055,16.73363L182.22055,27.73002
			L182.70007,27.73002L182.70007,16.73363L182.22055,16.73363z"/>
		<path clip-path="url(#SVG_CP_1)" fill="#5526F0" fill-rule="evenodd" stroke="none" d="M182.70007,16.73363L182.70007,27.73002
			L183.1796,27.73002L183.1796,16.73363L182.70007,16.73363z"/>
		<path clip-path="url(#SVG_CP_1)" fill="#5226F0" fill-rule="evenodd" stroke="none" d="M183.1796,16.73363L183.1796,27.73002
			L183.65913,27.73002L183.65913,16.73363L183.1796,16.73363z"/>
		<path clip-path="url(#SVG_CP_1)" fill="#5226F0" fill-rule="evenodd" stroke="none" d="M183.65913,16.73363L183.65913,27.73002
			L184.13866,27.73002L184.13866,16.73363L183.65913,16.73363z"/>
		<path clip-path="url(#SVG_CP_1)" fill="#5024F0" fill-rule="evenodd" stroke="none" d="M184.13866,16.73363L184.13866,27.73002
			L184.61818,27.73002L184.61818,16.73363L184.13866,16.73363z"/>
		<path clip-path="url(#SVG_CP_1)" fill="#5024F0" fill-rule="evenodd" stroke="none" d="M184.61818,16.73363L184.61818,27.73002
			L185.09771,27.73002L185.09771,16.73363L184.61818,16.73363z"/>
		<path clip-path="url(#SVG_CP_1)" fill="#4D24F0" fill-rule="evenodd" stroke="none" d="M185.09771,16.73363L185.09771,27.73002
			L185.57724,27.73002L185.57724,16.73363L185.09771,16.73363z"/>
		<path clip-path="url(#SVG_CP_1)" fill="#4B22F0" fill-rule="evenodd" stroke="none" d="M185.57724,16.73363L185.57724,27.73002
			L186.05677,27.73002L186.05677,16.73363L185.57724,16.73363z"/>
		<path clip-path="url(#SVG_CP_1)" fill="#4B22F0" fill-rule="evenodd" stroke="none" d="M186.05677,16.73363L186.05677,27.73002
			L186.5363,27.73002L186.5363,16.73363L186.05677,16.73363z"/>
		<path clip-path="url(#SVG_CP_1)" fill="#4822F2" fill-rule="evenodd" stroke="none" d="M186.5363,16.73363L186.5363,27.73002
			L187.01582,27.73002L187.01582,16.73363L186.5363,16.73363z"/>
		<path clip-path="url(#SVG_CP_1)" fill="#461FF2" fill-rule="evenodd" stroke="none" d="M187.01582,16.73363L187.01582,27.73002
			L187.49535,27.73002L187.49535,16.73363L187.01582,16.73363z"/>
		<path clip-path="url(#SVG_CP_1)" fill="#461FF2" fill-rule="evenodd" stroke="none" d="M187.49535,16.73363L187.49535,27.73002
			L187.97488,27.73002L187.97488,16.73363L187.49535,16.73363z"/>
		<path clip-path="url(#SVG_CP_1)" fill="#461FF2" fill-rule="evenodd" stroke="none" d="M187.97488,16.73363L187.97488,27.73002
			L188.45441,27.73002L188.45441,16.73363L187.97488,16.73363z"/>
		<path clip-path="url(#SVG_CP_1)" fill="#411DF2" fill-rule="evenodd" stroke="none" d="M188.45441,16.73363L188.45441,27.73002
			L188.93393,27.73002L188.93393,16.73363L188.45441,16.73363z"/>
		<path clip-path="url(#SVG_CP_1)" fill="#411DF2" fill-rule="evenodd" stroke="none" d="M188.93393,16.73363L188.93393,27.73002
			L189.41346,27.73002L189.41346,16.73363L188.93393,16.73363z"/>
		<path clip-path="url(#SVG_CP_1)" fill="#411DF2" fill-rule="evenodd" stroke="none" d="M189.41346,16.73363L189.41346,27.73002
			L189.89299,27.73002L189.89299,16.73363L189.41346,16.73363z"/>
		<path clip-path="url(#SVG_CP_1)" fill="#3D1DF2" fill-rule="evenodd" stroke="none" d="M189.89299,16.73363L189.89299,27.73002
			L190.37252,27.73002L190.37252,16.73363L189.89299,16.73363z"/>
		<path clip-path="url(#SVG_CP_1)" fill="#3C1BF5" fill-rule="evenodd" stroke="none" d="M190.37252,16.73363L190.37252,27.73002
			L190.85205,27.73002L190.85205,16.73363L190.37252,16.73363z"/>
		<path clip-path="url(#SVG_CP_1)" fill="#3C1BF5" fill-rule="evenodd" stroke="none" d="M190.85205,16.73363L190.85205,27.73002
			L191.33157,27.73002L191.33157,16.73363L190.85205,16.73363z"/>
		<path clip-path="url(#SVG_CP_1)" fill="#381BF5" fill-rule="evenodd" stroke="none" d="M191.33157,16.73363L191.33157,27.73002
			L191.8111,27.73002L191.8111,16.73363L191.33157,16.73363z"/>
		<path clip-path="url(#SVG_CP_1)" fill="#3618F5" fill-rule="evenodd" stroke="none" d="M191.8111,16.73363L191.8111,27.73002
			L192.29063,27.73002L192.29063,16.73363L191.8111,16.73363z"/>
		<path clip-path="url(#SVG_CP_1)" fill="#3618F5" fill-rule="evenodd" stroke="none" d="M192.29063,16.73363L192.29063,27.73002
			L192.77016,27.73002L192.77016,16.73363L192.29063,16.73363z"/>
		<path clip-path="url(#SVG_CP_1)" fill="#3618F5" fill-rule="evenodd" stroke="none" d="M192.77016,16.73363L192.77016,27.73002
			L193.24968,27.73002L193.24968,16.73363L192.77016,16.73363z"/>
		<path clip-path="url(#SVG_CP_1)" fill="#3016F5" fill-rule="evenodd" stroke="none" d="M193.24968,16.73363L193.24968,27.73002
			L193.72921,27.73002L193.72921,16.73363L193.24968,16.73363z"/>
		<path clip-path="url(#SVG_CP_1)" fill="#3016F5" fill-rule="evenodd" stroke="none" d="M193.72921,16.73363L193.72921,27.73002
			L194.20874,27.73002L194.20874,16.73363L193.72921,16.73363z"/>
		<path clip-path="url(#SVG_CP_1)" fill="#3016F5" fill-rule="evenodd" stroke="none" d="M194.20874,16.73363L194.20874,27.73002
			L194.68827,27.73002L194.68827,16.73363L194.20874,16.73363z"/>
		<path clip-path="url(#SVG_CP_1)" fill="#2B14F7" fill-rule="evenodd" stroke="none" d="M194.68827,16.73363L194.68827,27.73002
			L195.1678,27.73002L195.1678,16.73363L194.68827,16.73363z"/>
		<path clip-path="url(#SVG_CP_1)" fill="#2B14F7" fill-rule="evenodd" stroke="none" d="M195.1678,16.73363L195.1678,27.73002
			L195.64732,27.73002L195.64732,16.73363L195.1678,16.73363z"/>
		<path clip-path="url(#SVG_CP_1)" fill="#2B14F7" fill-rule="evenodd" stroke="none" d="M195.64732,16.73363L195.64732,27.73002
			L196.12685,27.73002L196.12685,16.73363L195.64732,16.73363z"/>
		<path clip-path="url(#SVG_CP_1)" fill="#2811F7" fill-rule="evenodd" stroke="none" d="M196.12685,16.73363L196.12685,27.73002
			L196.60638,27.73002L196.60638,16.73363L196.12685,16.73363z"/>
		<path clip-path="url(#SVG_CP_1)" fill="#2411F7" fill-rule="evenodd" stroke="none" d="M196.60638,16.73363L196.60638,27.73002
			L197.08591,27.73002L197.08591,16.73363L196.60638,16.73363z"/>
		<path clip-path="url(#SVG_CP_1)" fill="#2411F7" fill-rule="evenodd" stroke="none" d="M197.08591,16.73363L197.08591,27.73002
			L197.56543,27.73002L197.56543,16.73363L197.08591,16.73363z"/>
		<path clip-path="url(#SVG_CP_1)" fill="#220FF7" fill-rule="evenodd" stroke="none" d="M197.56543,16.73363L197.56543,27.73002
			L198.04496,27.73002L198.04496,16.73363L197.56543,16.73363z"/>
		<path clip-path="url(#SVG_CP_1)" fill="#1E0FF7" fill-rule="evenodd" stroke="none" d="M198.04496,16.73363L198.04496,27.73002
			L198.52449,27.73002L198.52449,16.73363L198.04496,16.73363z"/>
		<path clip-path="url(#SVG_CP_1)" fill="#1F0FFA" fill-rule="evenodd" stroke="none" d="M198.52449,16.73363L198.52449,27.73002
			L199.00402,27.73002L199.00402,16.73363L198.52449,16.73363z"/>
		<path clip-path="url(#SVG_CP_1)" fill="#1C0CFA" fill-rule="evenodd" stroke="none" d="M199.00402,16.73363L199.00402,27.73002
			L199.48355,27.73002L199.48355,16.73363L199.00402,16.73363z"/>
		<path clip-path="url(#SVG_CP_1)" fill="#1C0CFA" fill-rule="evenodd" stroke="none" d="M199.48355,16.73363L199.48355,27.73002
			L199.96307,27.73002L199.96307,16.73363L199.48355,16.73363z"/>
		<path clip-path="url(#SVG_CP_1)" fill="#180CFA" fill-rule="evenodd" stroke="none" d="M199.96307,16.73363L199.96307,27.73002
			L200.4426,27.73002L200.4426,16.73363L199.96307,16.73363z"/>
		<path clip-path="url(#SVG_CP_1)" fill="#160AFA" fill-rule="evenodd" stroke="none" d="M200.4426,16.73363L200.4426,27.73002
			L200.92213,27.73002L200.92213,16.73363L200.4426,16.73363z"/>
		<path clip-path="url(#SVG_CP_1)" fill="#160AFA" fill-rule="evenodd" stroke="none" d="M200.92213,16.73363L200.92213,27.73002
			L201.40166,27.73002L201.40166,16.73363L200.92213,16.73363z"/>
		<path clip-path="url(#SVG_CP_1)" fill="#120AFA" fill-rule="evenodd" stroke="none" d="M201.40166,16.73363L201.40166,27.73002
			L201.88118,27.73002L201.88118,16.73363L201.40166,16.73363z"/>
		<path clip-path="url(#SVG_CP_1)" fill="#1007FA" fill-rule="evenodd" stroke="none" d="M201.88118,16.73363L201.88118,27.73002
			L202.36071,27.73002L202.36071,16.73363L201.88118,16.73363z"/>
		<path clip-path="url(#SVG_CP_1)" fill="#1008FC" fill-rule="evenodd" stroke="none" d="M202.36071,16.73363L202.36071,27.73002
			L202.84024,27.73002L202.84024,16.73363L202.36071,16.73363z"/>
		<path clip-path="url(#SVG_CP_1)" fill="#1008FC" fill-rule="evenodd" stroke="none" d="M202.84024,16.73363L202.84024,27.73002
			L203.31977,27.73002L203.31977,16.73363L202.84024,16.73363z"/>
		<path clip-path="url(#SVG_CP_1)" fill="#0905FC" fill-rule="evenodd" stroke="none" d="M203.31977,16.73363L203.31977,27.73002
			L203.79929,27.73002L203.79929,16.73363L203.31977,16.73363z"/>
		<path clip-path="url(#SVG_CP_1)" fill="#0905FC" fill-rule="evenodd" stroke="none" d="M203.79929,16.73363L203.79929,27.73002
			L204.27882,27.73002L204.27882,16.73363L203.79929,16.73363z"/>
		<path clip-path="url(#SVG_CP_1)" fill="#0905FC" fill-rule="evenodd" stroke="none" d="M204.27882,16.73363L204.27882,27.73002
			L204.75835,27.73002L204.75835,16.73363L204.27882,16.73363z"/>
		<path clip-path="url(#SVG_CP_1)" fill="#0303FC" fill-rule="evenodd" stroke="none" d="M204.75835,16.73363L204.75835,27.73002
			L205.23788,27.73002L205.23788,16.73363L204.75835,16.73363z"/>
		<path clip-path="url(#SVG_CP_1)" fill="#0303FC" fill-rule="evenodd" stroke="none" d="M205.23788,16.73363L205.23788,27.73002
			L205.71741,27.73002L205.71741,16.73363L205.23788,16.73363z"/>
		<path clip-path="url(#SVG_CP_1)" fill="#0303FC" fill-rule="evenodd" stroke="none" d="M205.71741,16.73363L205.71741,27.73002
			L206.19693,27.73002L206.19693,16.73363L205.71741,16.73363z"/>
		<path clip-path="url(#SVG_CP_1)" fill="#0000FF" fill-rule="evenodd" stroke="none" d="M206.19693,16.73363L206.19693,27.73002
			L206.67646,27.73002L206.67646,16.73363L206.19693,16.73363z"/>
		<path clip-path="url(#SVG_CP_1)" fill="none" stroke="#000000" stroke-width="0.95906" stroke-miterlimit="10" stroke-linecap="round" stroke-linejoin="round" d="
			M106.93469,27.73002L106.93469,28.68622"/>
		<g font-family="'Arial'" font-size="1" kerning="0" font-weight="400" fill="#000000" clip-path="url(#SVG_CP_1)" >
			<text text-anchor="start" transform="matrix(9.59056 0 0 9.56207 194.20874 41.59502)" >
				<tspan direction="ltr" unicode-bidi="embed" x="0 ">1</tspan>
				<tspan direction="ltr" unicode-bidi="embed" x="0.54837 ">0</tspan>
				<tspan direction="ltr" unicode-bidi="embed" x="1.14659 ">0</tspan>
			</text>
		</g>
		<g font-family="'Arial'" font-size="1" kerning="0" font-weight="400" fill="#000000" clip-path="url(#SVG_CP_1)" >
			<text text-anchor="start" transform="matrix(9.59056 0 0 9.56207 2.87717 39.2045)" >
				<tspan direction="ltr" unicode-bidi="embed" x="0 ">0</tspan>
			</text>
		</g>
		<g font-family="'Arial'" font-size="1" kerning="0" font-weight="400" fill="#000000" clip-path="url(#SVG_CP_1)" >
			<text text-anchor="start" transform="matrix(9.59056 0 0 9.56207 101.65988 42.55123)" >
				<tspan direction="ltr" unicode-bidi="embed" x="0 ">5</tspan>
				<tspan direction="ltr" unicode-bidi="embed" x="0.54837 ">0</tspan>
			</text>
		</g>
	</g>
</svg>
