<?xml version="1.0" encoding="utf-8" standalone="no"?>
<!-- Creator: Esri ArcMap 10.5.0.6491 -->
<!DOCTYPE svg PUBLIC "-//W3C//DTD SVG 1.1//EN"  "http://www.w3.org/Graphics/SVG/1.1/DTD/svg11.dtd">
<svg width="215.34803pt" height="43.93701pt" viewBox="0 0 215.34803 43.93701" enable-background="new 0 0 215.34803 43.93701"
	version="1.1" xmlns="http://www.w3.org/2000/svg" xmlns:xlink="http://www.w3.org/1999/xlink" >
	<g id="Other">
		<clipPath id="SVG_CP_1">
			<path d="M0,43.93701L0,0L215.34803,0L215.34803,43.93701L0,43.93701z"/>
		</clipPath>
		<g font-family="'Arial'" font-size="1" kerning="0" font-weight="400" fill="#000000" clip-path="url(#SVG_CP_1)" >
			<text text-anchor="start" transform="matrix(9.59056 0 0 9.56151 5.27481 9.56151)" >
				<tspan direction="ltr" unicode-bidi="embed" x="0 ">M</tspan>
				<tspan direction="ltr" unicode-bidi="embed" x="0.84743 ">е</tspan>
				<tspan direction="ltr" unicode-bidi="embed" x="1.39576 ">с</tspan>
				<tspan direction="ltr" unicode-bidi="embed" x="1.9441 ">я</tspan>
				<tspan direction="ltr" unicode-bidi="embed" x="2.49243 ">ц</tspan>
				<tspan direction="ltr" unicode-bidi="embed" x="3.09061 ">ы</tspan>
			</text>
		</g>
		<path clip-path="url(#SVG_CP_1)" fill="#8CC6E4" fill-rule="evenodd" stroke="#000000" stroke-width="0.47953" stroke-miterlimit="10" stroke-linecap="round" stroke-linejoin="round" d="
			M5.27481,26.29416L5.27481,14.34227L23.49686,14.34227L23.49686,26.29416L5.27481,26.29416z"/>
		<path clip-path="url(#SVG_CP_1)" fill="#7FB4DF" fill-rule="evenodd" stroke="#000000" stroke-width="0.47953" stroke-miterlimit="10" stroke-linecap="round" stroke-linejoin="round" d="
			M23.49686,26.29416L23.49686,14.34227L41.71891,14.34227L41.71891,26.29416L23.49686,26.29416z"/>
		<path clip-path="url(#SVG_CP_1)" fill="#72A2DA" fill-rule="evenodd" stroke="#000000" stroke-width="0.47953" stroke-miterlimit="10" stroke-linecap="round" stroke-linejoin="round" d="
			M41.71891,26.29416L41.71891,14.34227L59.94097,14.34227L59.94097,26.29416L41.71891,26.29416z"/>
		<path clip-path="url(#SVG_CP_1)" fill="#6690D4" fill-rule="evenodd" stroke="#000000" stroke-width="0.47953" stroke-miterlimit="10" stroke-linecap="round" stroke-linejoin="round" d="
			M59.94097,26.29416L59.94097,14.34227L78.16302,14.34227L78.16302,26.29416L59.94097,26.29416z"/>
		<path clip-path="url(#SVG_CP_1)" fill="#597ECF" fill-rule="evenodd" stroke="#000000" stroke-width="0.47953" stroke-miterlimit="10" stroke-linecap="round" stroke-linejoin="round" d="
			M78.16302,26.29416L78.16302,14.34227L96.38508,14.34227L96.38508,26.29416L78.16302,26.29416z"/>
		<path clip-path="url(#SVG_CP_1)" fill="#4C6CCA" fill-rule="evenodd" stroke="#000000" stroke-width="0.47953" stroke-miterlimit="10" stroke-linecap="round" stroke-linejoin="round" d="
			M96.38508,26.29416L96.38508,14.34227L115.08666,14.34227L115.08666,26.29416L96.38508,26.29416z"/>
		<path clip-path="url(#SVG_CP_1)" fill="#3F5AC4" fill-rule="evenodd" stroke="#000000" stroke-width="0.47953" stroke-miterlimit="10" stroke-linecap="round" stroke-linejoin="round" d="
			M115.08666,26.29416L115.08666,14.34227L133.30872,14.34227L133.30872,26.29416L115.08666,26.29416z"/>
		<path clip-path="url(#SVG_CP_1)" fill="#3348BF" fill-rule="evenodd" stroke="#000000" stroke-width="0.47953" stroke-miterlimit="10" stroke-linecap="round" stroke-linejoin="round" d="
			M133.30872,26.29416L133.30872,14.34227L151.53077,14.34227L151.53077,26.29416L133.30872,26.29416z"/>
		<path clip-path="url(#SVG_CP_1)" fill="#2636BA" fill-rule="evenodd" stroke="#000000" stroke-width="0.47953" stroke-miterlimit="10" stroke-linecap="round" stroke-linejoin="round" d="
			M151.53077,26.29416L151.53077,14.34227L169.75282,14.34227L169.75282,26.29416L151.53077,26.29416z"/>
		<path clip-path="url(#SVG_CP_1)" fill="#1924B4" fill-rule="evenodd" stroke="#000000" stroke-width="0.47953" stroke-miterlimit="10" stroke-linecap="round" stroke-linejoin="round" d="
			M169.75282,26.29416L169.75282,14.34227L187.97488,14.34227L187.97488,26.29416L169.75282,26.29416z"/>
		<path clip-path="url(#SVG_CP_1)" fill="#0C12AF" fill-rule="evenodd" stroke="#000000" stroke-width="0.47953" stroke-miterlimit="10" stroke-linecap="round" stroke-linejoin="round" d="
			M187.97488,26.29416L187.97488,14.34227L206.19693,14.34227L206.19693,26.29416L187.97488,26.29416z"/>
		<g font-family="'Arial'" font-size="1" kerning="0" font-weight="400" fill="#000000" clip-path="url(#SVG_CP_1)" >
			<text text-anchor="start" transform="matrix(9.59056 0 0 9.56151 11.02914 40.63643)" >
				<tspan direction="ltr" unicode-bidi="embed" x="0 ">1</tspan>
			</text>
		</g>
		<g font-family="'Arial'" font-size="1" kerning="0" font-weight="400" fill="#000000" clip-path="url(#SVG_CP_1)" >
			<text text-anchor="start" transform="matrix(9.59056 0 0 9.56151 102.61894 40.63643)" >
				<tspan direction="ltr" unicode-bidi="embed" x="0 ">6</tspan>
			</text>
		</g>
		<g font-family="'Arial'" font-size="1" kerning="0" font-weight="400" fill="#000000" clip-path="url(#SVG_CP_1)" >
			<text text-anchor="start" transform="matrix(9.59056 0 0 9.56151 29.25119 40.63643)" >
				<tspan direction="ltr" unicode-bidi="embed" x="0 ">2</tspan>
			</text>
		</g>
		<g font-family="'Arial'" font-size="1" kerning="0" font-weight="400" fill="#000000" clip-path="url(#SVG_CP_1)" >
			<text text-anchor="start" transform="matrix(9.59056 0 0 9.56151 47.95278 40.63643)" >
				<tspan direction="ltr" unicode-bidi="embed" x="0 ">3</tspan>
			</text>
		</g>
		<g font-family="'Arial'" font-size="1" kerning="0" font-weight="400" fill="#000000" clip-path="url(#SVG_CP_1)" >
			<text text-anchor="start" transform="matrix(9.59056 0 0 9.56151 66.17483 40.63643)" >
				<tspan direction="ltr" unicode-bidi="embed" x="0 ">4</tspan>
			</text>
		</g>
		<g font-family="'Arial'" font-size="1" kerning="0" font-weight="400" fill="#000000" clip-path="url(#SVG_CP_1)" >
			<text text-anchor="start" transform="matrix(9.59056 0 0 9.56151 84.39688 40.63643)" >
				<tspan direction="ltr" unicode-bidi="embed" x="0 ">5</tspan>
			</text>
		</g>
		<g font-family="'Arial'" font-size="1" kerning="0" font-weight="400" fill="#000000" clip-path="url(#SVG_CP_1)" >
			<text text-anchor="start" transform="matrix(9.59056 0 0 9.56151 195.1678 40.63643)" >
				<tspan direction="ltr" unicode-bidi="embed" x="0 ">1</tspan>
				<tspan direction="ltr" unicode-bidi="embed" x="0.54833 ">2</tspan>
			</text>
		</g>
		<g font-family="'Arial'" font-size="1" kerning="0" font-weight="400" fill="#000000" clip-path="url(#SVG_CP_1)" >
			<text text-anchor="start" transform="matrix(9.59056 0 0 9.56151 120.84099 40.63643)" >
				<tspan direction="ltr" unicode-bidi="embed" x="0 ">7</tspan>
			</text>
		</g>
		<g font-family="'Arial'" font-size="1" kerning="0" font-weight="400" fill="#000000" clip-path="url(#SVG_CP_1)" >
			<text text-anchor="start" transform="matrix(9.59056 0 0 9.56151 139.54258 40.63643)" >
				<tspan direction="ltr" unicode-bidi="embed" x="0 ">8</tspan>
			</text>
		</g>
		<g font-family="'Arial'" font-size="1" kerning="0" font-weight="400" fill="#000000" clip-path="url(#SVG_CP_1)" >
			<text text-anchor="start" transform="matrix(9.59056 0 0 9.56151 157.76463 40.63643)" >
				<tspan direction="ltr" unicode-bidi="embed" x="0 ">9</tspan>
			</text>
		</g>
		<g font-family="'Arial'" font-size="1" kerning="0" font-weight="400" fill="#000000" clip-path="url(#SVG_CP_1)" >
			<text text-anchor="start" transform="matrix(9.59056 0 0 9.56151 168.31424 40.63643)" >
				<tspan direction="ltr" unicode-bidi="embed" x="0 ">1</tspan>
				<tspan direction="ltr" unicode-bidi="embed" x="0.54833 ">0</tspan>
				<tspan direction="ltr" unicode-bidi="embed" x="1.14652 ">-</tspan>
				<tspan direction="ltr" unicode-bidi="embed" x="1.44561 ">1</tspan>
				<tspan direction="ltr" unicode-bidi="embed" x="1.9441 ">1</tspan>
			</text>
		</g>
	</g>
</svg>
