<svg xmlns="http://www.w3.org/2000/svg" xmlns:xlink="http://www.w3.org/1999/xlink" viewBox="0 0 225.04 98.39"><defs><style>.cls-1{isolation:isolate;}.cls-2{font-size:15.13px;fill:#231f20;font-family:ArialNarrow, Arial;}.cls-3{fill:#8cc341;}.cls-4{fill:#2da3dc;}.cls-5{mix-blend-mode:soft-light;}.cls-6{fill:#fff;}.cls-7{mix-blend-mode:multiply;fill:url(#linear-gradient);}</style><linearGradient id="linear-gradient" x1="192.45" y1="98.16" x2="136.24" y2="41.96" gradientTransform="matrix(-1, 0, 0, 1, 214.55, 0)" gradientUnits="userSpaceOnUse"><stop offset="0" stop-color="#fff"/><stop offset="1" stop-color="#b3b2b3"/></linearGradient></defs><title>ELake v02</title><g class="cls-1"><g id="Layer_1" data-name="Layer 1"><text class="cls-2" transform="translate(97.98 64.83) scale(0.73 1)">Озера Республики Казахстан.</text><path class="cls-3" d="M48.47,0H81.61A12.86,12.86,0,0,1,94.47,12.86V54a0,0,0,0,1,0,0H61.33A12.86,12.86,0,0,1,48.47,41.14V0A0,0,0,0,1,48.47,0Z"/><path class="cls-4" d="M106.32,34.37v30h16.91a4.46,4.46,0,0,1,3.1,1,3.2,3.2,0,0,1,1.08,2.47,3.12,3.12,0,0,1-1.07,2.46,4.58,4.58,0,0,1-3.12.94H103.09A5.35,5.35,0,0,1,99.17,70,5.4,5.4,0,0,1,98,66.08V34.37a5.51,5.51,0,0,1,1.14-3.79,3.83,3.83,0,0,1,3-1.26,4,4,0,0,1,3,1.25A5.42,5.42,0,0,1,106.32,34.37Z" transform="translate(0 -21.87)"/><path class="cls-4" d="M151.73,67.57a23.73,23.73,0,0,1-5.38,3.24,15,15,0,0,1-5.83,1.08,11,11,0,0,1-5.18-1.17,8.53,8.53,0,0,1-3.44-3.16,8.2,8.2,0,0,1-1.21-4.33,7.74,7.74,0,0,1,2-5.36,10,10,0,0,1,5.48-3q.73-.17,3.62-.76t5-1.08q2.06-.49,4.48-1.19A8,8,0,0,0,150,47.42Q148.92,46,145.53,46a9.33,9.33,0,0,0-4.4.81,7.14,7.14,0,0,0-2.53,2.44,25.85,25.85,0,0,1-1.49,2.15,2.44,2.44,0,0,1-1.87.52A3.27,3.27,0,0,1,133,51.1a2.7,2.7,0,0,1-.94-2.12A6.49,6.49,0,0,1,133.51,45,10.25,10.25,0,0,1,138,41.9a20.12,20.12,0,0,1,7.56-1.24,21.38,21.38,0,0,1,7.95,1.19,7.39,7.39,0,0,1,4.09,3.78,16.52,16.52,0,0,1,1.19,6.85q0,2.7,0,4.58t0,4.18a15.42,15.42,0,0,0,.72,4.51,14.23,14.23,0,0,1,.72,3A2.83,2.83,0,0,1,159,70.93a3.72,3.72,0,0,1-2.51,1,3.39,3.39,0,0,1-2.33-1.11A16.44,16.44,0,0,1,151.73,67.57Zm-.51-11.09a38.56,38.56,0,0,1-4.9,1.31q-3.22.69-4.45,1a6.05,6.05,0,0,0-2.36,1.26,3.24,3.24,0,0,0-1.12,2.63,3.89,3.89,0,0,0,1.32,3,4.88,4.88,0,0,0,3.45,1.22,9,9,0,0,0,4.2-1,6.66,6.66,0,0,0,2.82-2.57q1-1.74,1-5.73Z" transform="translate(0 -21.87)"/><path class="cls-4" d="M185.63,68.39l-6.77-11.12-4.16,3.93v6.09a4.68,4.68,0,0,1-1.17,3.41,3.65,3.65,0,0,1-2.68,1.19,3.47,3.47,0,0,1-2.78-1.18,5.22,5.22,0,0,1-1-3.48V34.54a6.5,6.5,0,0,1,1-3.89,3.28,3.28,0,0,1,2.81-1.33,3.51,3.51,0,0,1,2.81,1.21,5.34,5.34,0,0,1,1,3.57V52.68l8.62-9a21.21,21.21,0,0,1,2.44-2.3,3.37,3.37,0,0,1,2.05-.62,3.32,3.32,0,0,1,2.39.91,3,3,0,0,1,1,2.29q0,1.69-3.12,4.49L184,52.15l7.86,12.36q.87,1.38,1.25,2.09a2.92,2.92,0,0,1,.38,1.36,4,4,0,0,1-1,2.88,3.45,3.45,0,0,1-2.63,1.05,2.93,2.93,0,0,1-2.16-.76A18.33,18.33,0,0,1,185.63,68.39Z" transform="translate(0 -21.87)"/><path class="cls-4" d="M218.72,58.19h-15a10.16,10.16,0,0,0,1.05,4.61,7,7,0,0,0,6.47,4,9.19,9.19,0,0,0,2.51-.32,8.17,8.17,0,0,0,2.2-1,16.82,16.82,0,0,0,2-1.47q.9-.79,2.33-2.13a2.52,2.52,0,0,1,1.69-.51,2.78,2.78,0,0,1,1.91.65,2.31,2.31,0,0,1,.73,1.83,5,5,0,0,1-.81,2.43,9.65,9.65,0,0,1-2.46,2.67,14,14,0,0,1-4.13,2.12,17.78,17.78,0,0,1-5.72.84q-7.39,0-11.49-4.21t-4.1-11.43a19.06,19.06,0,0,1,1-6.31,13.9,13.9,0,0,1,2.95-5,12.78,12.78,0,0,1,4.77-3.19,17.15,17.15,0,0,1,6.29-1.11,14.92,14.92,0,0,1,7.71,1.9,12.47,12.47,0,0,1,4.82,4.9,12.89,12.89,0,0,1,1.6,6.12q0,2.89-1.66,3.75A10.33,10.33,0,0,1,218.72,58.19Zm-15-4.35h13.9A9.32,9.32,0,0,0,215.5,48a6.35,6.35,0,0,0-4.85-2,6.14,6.14,0,0,0-4.7,2A9.85,9.85,0,0,0,203.72,53.84Z" transform="translate(0 -21.87)"/><path class="cls-3" d="M62.1,28.77h0Z" transform="translate(0 -21.87)"/><path class="cls-5" d="M62.1,28.77h0Z" transform="translate(0 -21.87)"/><path class="cls-5" d="M85.56,68.33a4.11,4.11,0,0,1-2.89,1.18H61.74a4.13,4.13,0,0,1-4.13-4.13V32.9A4.11,4.11,0,0,1,58.79,30a4.17,4.17,0,0,0-.3.35c-.09.07-4.42,4.39-10,10V63A12.86,12.86,0,0,0,61.33,75.87H78c4.18-4.19,7.14-7.16,7.2-7.23A4.17,4.17,0,0,0,85.56,68.33Z" transform="translate(0 -21.87)"/><path class="cls-6" d="M57.61,65.39a4.13,4.13,0,0,0,4.13,4.13H82.67a4.11,4.11,0,0,0,2.89-1.18l.1-.11a4.16,4.16,0,0,0,.37-.44l.09-.12a4.12,4.12,0,0,0,.32-.58l.06-.15a4.09,4.09,0,0,0,.2-.66l0-.12a4.09,4.09,0,0,0-4-4.88H65.86v-8H79.42a4.13,4.13,0,1,0,0-8.25H65.86V37H82.67a4.13,4.13,0,0,0,0-8.25H61.74a4.12,4.12,0,0,0-.75.08l-.12,0a4.09,4.09,0,0,0-.66.2l-.15.06a4.12,4.12,0,0,0-.58.32l-.12.09a4.13,4.13,0,0,0-.44.37l-.11.1a4.11,4.11,0,0,0-1.18,2.89Z" transform="translate(0 -21.87)"/><path class="cls-7" d="M48.47,63v-41L2.77,67.76c-3.06,3.06-3.68,7.39-1.39,9.68l41.44,41.44c2.29,2.29,6.62,1.67,9.68-1.39L94.12,75.88H61.33A12.86,12.86,0,0,1,48.47,63Z" transform="translate(0 -21.87)"/></g></g></svg>